<svg xmlns="http://www.w3.org/2000/svg" width="122.137" height="103.832" viewBox="0 0 122.137 103.832">
  <g id="Group_366" data-name="Group 366" transform="translate(-13819.703 -9217.41)">
    <g id="About_Us_Doodle_Background" data-name="About Us Doodle Background" transform="translate(13819.703 9217.41)">
      <path id="Path_1172" data-name="Path 1172" d="M110.577,178.844a45.187,45.187,0,1,1,45.187-45.187,45.187,45.187,0,0,1-45.187,45.187Zm0-87.507A42.321,42.321,0,1,0,152.9,133.657a42.321,42.321,0,0,0-42.321-42.321Z" transform="translate(-65.39 -75.011)" fill="#fff"/>
      <path id="Path_1173" data-name="Path 1173" d="M125.41,113.58a34.906,34.906,0,1,0,34.9,34.9A34.906,34.906,0,0,0,125.41,113.58Zm0,66.945a32.039,32.039,0,1,1,32.035-32.038,32.04,32.04,0,0,1-32.035,32.038Z" transform="translate(-80.219 -89.84)" fill="#fff"/>
      <path id="Path_1174" data-name="Path 1174" d="M129.543,120.58a32.039,32.039,0,1,0,32.035,32.038A32.04,32.04,0,0,0,129.543,120.58Zm0,51.283a19.244,19.244,0,1,1,19.244-19.244A19.244,19.244,0,0,1,129.543,171.863Z" transform="translate(-84.353 -93.974)" fill="#fff"/>
      <circle id="Ellipse_82" data-name="Ellipse 82" cx="7.239" cy="7.239" r="7.239" transform="translate(37.952 51.406)" fill="none" stroke="#fff" stroke-width="1"/>
      <path id="Path_1175" data-name="Path 1175" d="M148,151.83a19.244,19.244,0,1,0,19.244,19.244A19.244,19.244,0,0,0,148,151.83Zm0,35.622a16.378,16.378,0,1,1,16.378-16.378A16.378,16.378,0,0,1,148,187.452Z" transform="translate(-102.813 -112.429)" fill="none" stroke="#fff" stroke-width="1"/>
      <path id="Path_1176" data-name="Path 1176" d="M173.711,139.7a1.433,1.433,0,0,1-.819-2.6l56.913-40.535a1.433,1.433,0,1,1,1.662,2.334l-56.913,40.535A1.408,1.408,0,0,1,173.711,139.7Z" transform="translate(-128.521 -79.625)" fill="#fdfefe"/>
      <path id="Path_1177" data-name="Path 1177" d="M320.625,92.3a1.536,1.536,0,0,1-.409-.066L312.3,89.775A1.437,1.437,0,0,1,311.29,88.4v-7.37a1.433,1.433,0,0,1,2.866,0v6.318l6.907,2.141a1.433,1.433,0,0,1-.409,2.8Z" transform="translate(-210.607 -69.773)" fill="#fff"/>
      <path id="Path_1178" data-name="Path 1178" d="M333.651,80.3a1.56,1.56,0,0,1-.409-.066l-7.915-2.457A1.433,1.433,0,0,1,324.32,76.4v-7.37a1.433,1.433,0,0,1,2.866,0v6.318l6.907,2.141a1.437,1.437,0,0,1-.409,2.8Z" transform="translate(-218.301 -62.687)" fill="#fff"/>
      <path id="Path_1179" data-name="Path 1179" d="M346.665,68.3a1.507,1.507,0,0,1-.409-.066l-7.919-2.457A1.437,1.437,0,0,1,337.33,64.4v-7.37a1.433,1.433,0,0,1,2.866,0v6.318l6.907,2.141a1.433,1.433,0,0,1-.409,2.8Z" transform="translate(-225.985 -55.6)" fill="#fff"/>
      <circle id="Ellipse_83" data-name="Ellipse 83" cx="4.369" cy="4.369" r="4.369" transform="translate(40.822 54.277)" fill="#fff"/>
    </g>
  </g>
</svg>
