<?xml version="1.0" encoding="UTF-8"?><svg id="Layer_2" xmlns="http://www.w3.org/2000/svg" viewBox="0 0 9.32 9.3"><defs><style>.cls-1{fill:#fff;}</style></defs><g id="Layer_1-2"><g><path class="cls-1" d="M9.32,4.23c-.02-.06,0-.11,0-.17,0-.06-.01-.11,0-.17,0-.03,0-.06,0-.08h0c-.06-.33-.2-.62-.41-.88-.02-.02-.05-.05-.07-.07-.5-.51-1.1-.71-1.8-.58-.54,.11-.96,.41-1.25,.88-.03,.04-.05,.07-.11,.07-.37,0-.74,0-1.12,0-.06,0-.08-.02-.08-.08,0-.1,0-.21,0-.31,0-.03,0-.07-.04-.08-.04-.02-.06,0-.08,.03-.29,.29-.59,.59-.88,.88-.04,.04-.04,.08,0,.13,.29,.29,.59,.59,.88,.88,.02,.02,.04,.05,.08,.03,.03-.02,.04-.05,.04-.08,0-.11,0-.22,0-.32,0-.06,.02-.08,.08-.08,.29,0,.58,0,.86,0,.06,0,.08,.02,.09,.09,0,.19,.05,.37,.12,.55,.23,.56,.62,.94,1.19,1.13,.43,.15,.87,.13,1.3-.03,.21-.08,.39-.2,.56-.33,.11-.08,.2-.18,.28-.29,.18-.23,.3-.5,.36-.79h0s0-.06,0-.08v-.05s-.01-.1,.02-.14v-.02Zm-.96,.86c-.55,.56-1.44,.54-1.97-.04-.05-.05-.04-.09,0-.14,.1-.1,.23-.13,.36-.17,.1-.04,.2-.07,.29-.1,.13-.05,.16-.21,.07-.31-.19-.2-.25-.53-.14-.77,.14-.32,.58-.33,.77-.13,0,.01,.02,.02,.03,.03,.03,.08,.08,.14,.09,.23,.03,.25-.02,.46-.19,.65-.01,.01-.03,.02-.02,.04-.03,.14,0,.22,.13,.28,.17,.07,.35,.11,.51,.19,.02,0,.03,.01,.05,.02,.13,.08,.13,.13,.03,.23Zm.2-.27s-.03,.07-.07,.02c-.11-.13-.27-.16-.41-.21-.09-.03-.18-.06-.26-.09-.08-.03-.1-.09-.04-.16,.16-.19,.23-.41,.21-.66-.02-.29-.22-.5-.52-.54-.27-.04-.53,.1-.62,.36-.11,.3-.05,.57,.14,.82,.08,.11,.07,.16-.06,.2-.14,.05-.27,.09-.41,.14-.09,.03-.16,.07-.22,.14-.01,.01-.03,.05-.05,.01-.22-.38-.26-.78-.11-1.2,.2-.48,.56-.76,1.07-.84,.64-.1,1.26,.3,1.46,.9,.13,.38,.09,.75-.11,1.11Z"/><path class="cls-1" d="M2.96,5.96s-.01,.05-.03,.08c-.34,.4-.96,.56-1.45,.38-.16-.06-.29-.15-.43-.24,0,.03,.03,.04,.05,.06,.31,.22,.65,.32,1.03,.26,.33-.05,.6-.2,.82-.45,.02-.03,.06-.05,.01-.09Zm-.08,.85c-.09,.03-.18,.07-.26,.12,.09-.04,.18-.07,.26-.12Zm-.49-1.89s-.03,.08-.02,.13h0c.06-.14,.06-.28,.02-.41-.02-.08-.05-.17-.13-.21,.1,.15,.16,.31,.12,.5Zm-.78,.37c-.09-.14-.15-.29-.16-.46-.02-.27,.14-.49,.4-.53,.14-.02,.26,.02,.38,.09,0-.02-.02-.03-.04-.05-.17-.1-.35-.11-.52-.01-.2,.11-.3,.37-.24,.62,.03,.13,.06,.25,.17,.34ZM.17,5.93c-.07-.13-.1-.28-.14-.42,0-.03,0-.06,0-.09,0-.05,.02-.11-.03-.16,.03,.05,.01,.1,.02,.15h0s0,.06,0,.08h0v.02c.04,.14,.07,.29,.14,.42,0,0,.01,.02,.02,.03h0s.02,.03,.02,.04c.03,.06,.06,.12,.1,.17-.03-.09-.07-.16-.12-.24h0ZM.02,4.83s0,.06,0,.09v.02H.02v.07h0s0,.05,0,.07h0c0,.06,.01,.12,0,.17,.04-.05,0-.12,.02-.17,.03-.05,.02-.1,.02-.16,0-.03,.01-.07,0-.1,.03-.14,.07-.28,.13-.41,.08-.19,.21-.36,.33-.53-.26,.27-.4,.59-.47,.95H.02Z"/><path class="cls-1" d="M5.82,5.52c-.29-.29-.58-.57-.87-.86-.02-.02-.05-.07-.09-.04-.04,.02-.04,.06-.04,.1,0,.1,0,.21,0,.31,0,.05-.01,.07-.06,.07-.29,0-.57,0-.85,0-.05,0-.07-.02-.07-.07,0-.17-.04-.33-.1-.49-.36-1.08-1.64-1.61-2.66-1.1-.22,.11-.41,.26-.59,.44-.13,.17-.25,.33-.33,.53-.06,.13-.1,.27-.13,.41,.01,.03,0,.07,0,.1,0,.05,0,.11-.02,.16,0,.06,.02,.12-.02,.17v.02c.06,.04,.03,.1,.03,.16,0,.03,0,.06,0,.09,.04,.14,.07,.29,.14,.42h0c.05,.08,.09,.16,.12,.24,.01,.02,.02,.04,.03,.05,.39,.55,.93,.84,1.61,.85,.24,0,.47-.04,.69-.13,.08-.06,.17-.09,.26-.12,.28-.16,.51-.38,.68-.66,.03-.04,.05-.08,.11-.07,.36,0,.72,0,1.07,0,.06,0,.08,.02,.08,.07,0,.1,0,.21,0,.31,0,.04,0,.08,.04,.1,.04,.01,.06-.02,.09-.04,.29-.29,.58-.57,.87-.86,.05-.05,.06-.09,0-.15Zm-2.87,.54c-.22,.24-.49,.4-.82,.45-.38,.06-.72-.04-1.03-.26-.02-.01-.05-.03-.05-.06-.05-.05-.1-.1-.15-.15-.03-.03-.03-.06,0-.09,.05-.06,.1-.1,.17-.12,.15-.06,.31-.11,.47-.17,.18-.07,.21-.23,.07-.36-.11-.08-.14-.21-.17-.34-.06-.25,.03-.51,.24-.62,.17-.1,.35-.09,.52,.01,.02,.01,.03,.02,.04,.05l.03,.03c.09,.05,.11,.13,.13,.21,.04,.13,.04,.27-.02,.4h0c-.04,.13-.1,.23-.19,.31-.08,.08-.02,.25,.1,.29,.14,.05,.27,.09,.41,.14,.1,.04,.21,.08,.27,.17,.04,.04,0,.07-.01,.09Zm.15-.23s-.04,.07-.09,.02c-.13-.14-.31-.17-.47-.23-.06-.02-.12-.04-.18-.06-.09-.04-.1-.09-.04-.17,.19-.24,.26-.51,.16-.81-.08-.26-.3-.4-.6-.39-.24,0-.45,.18-.51,.42-.08,.28-.01,.54,.17,.77,.07,.09,.06,.14-.04,.18-.16,.06-.34,.11-.5,.18-.06,.03-.11,.06-.15,.1-.04,.05-.06,.03-.09-.02-.12-.21-.18-.43-.17-.66,0-.58,.36-1.09,.91-1.28,.74-.25,1.52,.18,1.73,.9,.11,.37,.06,.72-.12,1.05Z"/><path class="cls-1" d="M7.26,6.71s-.04-.08-.06-.13c-.02-.07-.06-.07-.12-.05-.08,.03-.17,.04-.25,.07-.05,.01-.08,0-.11-.04-.09-.12-.2-.23-.32-.32-.03-.02-.08-.05-.04-.1,.03-.04,.07-.02,.11,0,.11,.08,.21,.17,.29,.28,.03,.04,.06,.06,.12,.04,.09-.03,.19-.05,.28-.08,.04-.01,.07,0,.09,.04,.06,.15,.13,.3,.19,.46,.02,.04,0,.06-.04,.08-.09,.05-.17,.11-.26,.16-.04,.02-.06,.05-.05,.1,.02,.12,.02,.24,0,.35,0,.04,0,.07,.05,.09,.08,.05,.17,.1,.25,.14,.05,.03,.08,.06,.05,.13-.06,.13-.11,.26-.16,.38-.03,.07-.06,.1-.14,.07-.08-.03-.17-.04-.26-.07-.04-.01-.08,0-.11,.03-.07,.09-.16,.18-.25,.25-.04,.03-.05,.06-.03,.1,.03,.09,.04,.17,.07,.26,.02,.08,0,.12-.08,.15-.12,.04-.24,.09-.35,.14-.02,0-.03,.02-.04,.03h-.09c-.08-.08-.12-.18-.18-.28-.02-.05-.05-.08-.11-.07-.11,.01-.23,.01-.34,0-.04,0-.07,0-.09,.03-.07,.1-.12,.22-.21,.31h-.03c-.13-.06-.26-.12-.39-.16-.12-.04-.14-.06-.11-.19,.02-.08,.04-.16,.06-.24,.01-.04,0-.07-.03-.09-.1-.07-.18-.16-.25-.25-.03-.04-.06-.04-.1-.03-.09,.03-.19,.05-.28,.07-.06,.02-.1,0-.12-.06-.06-.14-.11-.27-.17-.41-.03-.06-.01-.1,.04-.14,.08-.04,.15-.1,.23-.13,.06-.03,.07-.07,.06-.13-.02-.1-.02-.21,0-.31,.01-.05,0-.08-.05-.11-.08-.04-.15-.09-.22-.13-.08-.05-.1-.08-.06-.16,.06-.12,.1-.25,.16-.37,.04-.1,.06-.1,.17-.08,.09,.02,.18,.04,.27,.07,.03,.01,.05,0,.07-.02,.03-.05,.08-.09,.12-.14,.04-.02,.07-.04,.1,0,.02,.04-.01,.06-.03,.09-.03,.04-.07,.07-.09,.11-.05,.09-.12,.09-.21,.07-.07-.02-.14-.04-.21-.06-.05-.01-.07,0-.09,.05-.03,.09-.06,.17-.11,.26-.03,.06,0,.08,.04,.11,.08,.04,.15,.09,.23,.14,.04,.02,.06,.06,.05,.11-.02,.14-.03,.28,0,.42,.02,.08-.01,.13-.08,.16-.03,.01-.06,.03-.09,.05-.04,.03-.08,.04-.12,.07-.05,.03-.06,.06-.03,.11,.04,.08,.07,.17,.11,.26,.02,.06,.05,.07,.11,.05,.09-.03,.19-.04,.28-.07,.05-.02,.08,.01,.1,.05,.1,.13,.23,.24,.35,.35,.02,.09-.02,.16-.04,.24-.04,.17-.05,.17,.11,.24,.06,.03,.12,.05,.18,.08,.04,.02,.07,0,.09-.03,.05-.08,.1-.16,.15-.25,.03-.04,.06-.06,.11-.05,.15,.02,.29,.02,.44,0,.06,0,.1,0,.12,.06,.02,.06,.07,.11,.1,.16,0,0,0,0,.01,.01,.03,.09,.09,.11,.18,.06,.06-.04,.13-.06,.2-.08,.05-.02,.07-.04,.05-.1-.03-.09-.05-.18-.07-.27-.01-.04,0-.07,.03-.1,.13-.09,.24-.21,.34-.34,.03-.04,.06-.05,.1-.03,.09,.03,.18,.05,.28,.07,.04,.01,.07,0,.09-.04,.04-.09,.08-.19,.12-.28,.02-.05,0-.06-.04-.08-.08-.05-.16-.1-.24-.14-.04-.02-.07-.05-.06-.1,.02-.16,.02-.31,0-.47,0-.05,0-.08,.05-.1,.09-.05,.18-.1,.26-.15,.03-.02,.04-.04,.02-.07-.02-.05-.04-.09-.06-.14Z"/><path class="cls-1" d="M4.66,9.13c.13,.05,.28,.07,.39,.17h-.03s-.07-.03-.1-.05h0s-.06-.01-.09-.03c-.05,0-.09-.04-.14-.05,0-.01-.02-.02-.02-.03Z"/><path class="cls-1" d="M5.27,9.01c-.04,.1-.12,.19-.16,.29h-.03c.05-.11,.12-.21,.19-.32,.01,0,.01,.01,0,.02Z"/><path class="cls-1" d="M4.9,9.25s.08,.01,.1,.05h-.05s-.05-.02-.05-.05Z"/><path class="cls-1" d="M6.09,7.01c.22,.32,.13,.66-.06,.86-.26,.26-.69,.27-.95,0-.26-.26-.26-.68,0-.94l.05-.05c.3-.25,.74-.18,.96,.12Z"/><path class="cls-1" d="M3.33,2.41c-.22-.2-.29-.47-.19-.74,.09-.24,.34-.42,.61-.42,.19,0,.37,.07,.5,.22,.22,.27,.21,.57,.07,.79-.18,.3-.59,.42-.92,.2-.02-.02-.05-.03-.07-.05Z"/><path class="cls-1" d="M3.47,.47c-.08-.08-.12-.19-.18-.28-.02-.03-.04-.06-.08-.04-.1,.04-.19,.08-.29,.12-.04,.02-.05,.04-.04,.08,.03,.09,.05,.19,.07,.28,.01,.04,0,.07-.03,.1-.13,.1-.25,.21-.35,.34-.03,.03-.06,.04-.1,.03-.09-.03-.19-.05-.29-.08-.04-.01-.06,0-.08,.04-.03,.09-.07,.18-.11,.27-.02,.05-.01,.07,.03,.09,.08,.04,.15,.1,.23,.14,.06,.03,.08,.07,.07,.13-.02,.14-.02,.28,0,.42,.01,.07-.01,.11-.07,.14-.05,.03-.1,.06-.15,.08q-.13,.07-.08,.21c.03,.08,.06,.15,.1,.23,.08,.06,.16,0,.23-.03,.14-.05,.23-.03,.31,.1,.06,.1,.15,.17,.25,.23,.03,.02,.07,.05,.04,.09-.03,.05-.07,.02-.11,0-.11-.08-.21-.18-.29-.28-.04-.04-.06-.06-.12-.04-.09,.03-.18,.05-.28,.07-.05,.01-.08,0-.1-.05-.06-.15-.13-.3-.19-.45-.02-.05,0-.07,.04-.09,.08-.05,.16-.1,.25-.15,.05-.03,.07-.06,.06-.12-.02-.11-.02-.22,0-.33,0-.05,0-.09-.06-.11-.08-.04-.17-.1-.25-.15-.05-.03-.06-.06-.04-.11,.06-.14,.12-.28,.17-.42,.02-.05,.05-.07,.11-.05,.09,.02,.18,.04,.26,.07,.06,.02,.1,.01,.14-.04,.07-.09,.15-.17,.23-.23,.04-.03,.06-.07,.04-.12-.03-.09-.05-.18-.07-.27-.02-.06,0-.1,.06-.12,.14-.06,.28-.11,.42-.18,.04-.02,.08,0,.1,.04,.05,.09,.1,.17,.15,.25,.03,.06,.08,.07,.15,.05,.09-.02,.18-.02,.27,0,.07,.02,.11,0,.14-.06,.04-.08,.09-.16,.14-.24,.03-.05,.07-.06,.13-.03,.12,.06,.25,.11,.38,.16,.08,.03,.1,.07,.08,.15-.03,.09-.04,.17-.07,.26-.01,.04,0,.07,.03,.1,.1,.07,.18,.16,.26,.26,.03,.04,.07,.03,.11,.02,.09-.02,.19-.05,.28-.07,.05-.01,.08,0,.1,.05,.06,.14,.11,.27,.17,.41,.03,.06,0,.1-.05,.14-.08,.05-.16,.1-.25,.14-.04,.02-.05,.05-.05,.09,.02,.12,.02,.24,0,.36,0,.04,0,.07,.05,.09,.09,.05,.17,.1,.26,.15,.05,.03,.07,.06,.04,.11-.06,.14-.12,.29-.18,.43-.02,.05-.05,.06-.1,.05-.1-.03-.2-.05-.29-.08-.04-.01-.07,0-.1,.03-.04,.05-.08,.1-.13,.14-.03,.03-.06,.04-.09,0-.03-.03,0-.06,.01-.08,.06-.07,.11-.13,.17-.2,.07-.05,.13,0,.19,0,.06,.01,.12,.02,.18,.05,.04,.02,.08,0,.09-.04,.03-.09,.07-.18,.11-.26,.03-.06,.01-.1-.05-.12-.08-.04-.15-.09-.23-.13-.04-.02-.06-.05-.05-.1,.02-.15,.02-.31,0-.46,0-.05,0-.09,.06-.11,.08-.04,.15-.09,.23-.13,.06-.03,.06-.06,.04-.12-.04-.08-.08-.17-.11-.26-.02-.04-.04-.05-.08-.04-.09,.03-.19,.05-.28,.08-.04,.01-.07,0-.1-.03-.07-.1-.15-.18-.24-.27-.11-.07-.16-.15-.1-.29,.02-.05,.04-.11,.05-.18,0-.04,0-.06-.04-.08-.1-.05-.2-.08-.3-.13-.03-.01-.05,0-.07,.03-.06,.08-.1,.17-.15,.25-.03,.04-.05,.07-.1,.06-.16-.04-.31-.03-.47,0-.02,0-.03,0-.05,0Z"/><path class="cls-1" d="M4.66,9.13l.02,.03c-.17-.05-.19-.08-.13-.25,.02-.05,.03-.1,.05-.16,.02-.06,.01-.11-.05-.15-.08-.06-.15-.13-.21-.22-.02-.03-.05-.05-.09-.03-.1,.03-.2,.06-.3,.08-.05,.01-.08-.01-.1-.05-.07-.15-.13-.31-.19-.46-.02-.04,0-.08,.04-.11,.08-.05,.16-.1,.25-.15,.06-.03,.06-.07,.05-.12-.02-.1-.02-.21,0-.31,0-.05,0-.08-.05-.1-.08-.04-.15-.09-.22-.13-.07-.04-.1-.08-.06-.16,.06-.14,.12-.28,.18-.41,.03-.07,.07-.08,.14-.06,.1,.04,.2,.04,.3,.08,.03,.01,.04-.01,.05-.03,.04-.04,.07-.09,.12-.12-.04,.05-.08,.1-.12,.15-.02,.03-.05,.03-.09,.02-.09-.03-.19-.05-.29-.08-.06-.02-.09,0-.11,.05-.05,.13-.11,.27-.17,.4-.03,.06-.01,.1,.05,.14,.08,.05,.16,.1,.25,.15,.04,.02,.05,.05,.05,.09-.02,.12-.02,.23,0,.35,0,.05,0,.08-.05,.11-.08,.04-.16,.1-.25,.15-.05,.03-.07,.06-.05,.11,.06,.14,.12,.29,.18,.43,.02,.04,.05,.05,.09,.04,.09-.02,.18-.04,.27-.07,.06-.02,.1-.01,.14,.04,.07,.09,.15,.17,.24,.24,.04,.03,.05,.06,.04,.1-.02,.08-.04,.16-.06,.24-.03,.12-.03,.13,.1,.17Z"/><path class="cls-1" d="M5.99,9.06c-.06-.03-.08-.09-.1-.14-.03-.05-.06-.07-.12-.06-.15,.02-.29,.02-.44,0-.05,0-.08,0-.1,.05-.04,.08-.1,.16-.14,.24-.03,.05-.06,.06-.11,.04-.09-.04-.19-.08-.28-.11-.05-.02-.07-.04-.05-.11,.04-.11,.06-.23,.08-.35,.04,.03,.01,.07,0,.11-.02,.08-.04,.16-.06,.23-.02,.05,0,.07,.04,.09,.09,.04,.18,.08,.27,.11,.04,.02,.06,0,.08-.03,.04-.08,.09-.15,.14-.23,.03-.06,.07-.08,.14-.07,.14,.03,.28,.03,.42,0,.05,0,.09,0,.11,.04,.04,.07,.09,.12,.11,.2Z"/><path class="cls-1" d="M3.47,.47c.18-.04,.36-.06,.54,0,.04,.01,.06-.03,.08-.06,.05-.08,.1-.16,.15-.25,.02-.04,.05-.05,.09-.04,.1,.04,.21,.09,.31,.13,.04,.02,.05,.04,.04,.07-.02,.09-.04,.18-.07,.27-.02,.06-.02,.1,.04,.14,.03,.01,.05,.03,.06,.07-.04-.03-.08-.05-.11-.08-.05-.03-.03-.08-.02-.12,.02-.09,.04-.17,.07-.26,.01-.04,0-.06-.04-.08-.09-.04-.19-.08-.28-.12-.04-.02-.06,0-.08,.03-.04,.08-.09,.15-.14,.23-.03,.06-.07,.08-.14,.07-.14-.03-.28-.03-.42,0-.03,0-.06,.02-.08-.01Z"/><path class="cls-1" d="M3.33,2.41c.11,.05,.21,.12,.33,.14,.33,.05,.64-.16,.72-.45,.06-.22,.02-.41-.11-.58-.01-.01-.02-.03-.02-.05,.17,.15,.21,.35,.17,.56-.05,.32-.36,.57-.68,.55-.15,0-.3-.05-.41-.17Z"/><path class="cls-1" d="M9.28,4.53h.02c-.02,.17-.09,.33-.16,.49-.1,.2-.23,.38-.39,.53-.03,.03-.05,.05-.09,.06,.12-.13,.25-.26,.35-.41,.13-.21,.22-.43,.28-.67Z"/><path class="cls-1" d="M4.38,8.26c-.06-.05-.12-.03-.19-.01-.07,.02-.13,.04-.2,.06-.05,.01-.08,0-.1-.05-.03-.09-.07-.17-.11-.26-.03-.06-.03-.11,.04-.14,.04-.02,.07-.05,.12-.05,0,0,0,.02-.01,.02q-.15,.1-.08,.26v.02q.09,.19,.29,.13s.1-.03,.15-.04c.05-.01,.08,.01,.1,.06Z"/><path class="cls-1" d="M6.09,7.01c-.08-.08-.16-.16-.27-.21-.22-.09-.42-.07-.62,.05-.02,.01-.04,.02-.06,.03,.08-.1,.19-.13,.31-.15,.21-.05,.51,.06,.64,.24,0,0,0,.02,0,.03Z"/><path class="cls-1" d="M5.48,2.37c.07,0,.1,.04,.06,.11-.04,.09-.08,.18-.11,.27-.02,.05-.05,.06-.1,.05-.08-.02-.16-.04-.23-.06-.04-.01-.09-.02-.14,0,.02-.04,.05-.04,.08-.03,.09,.02,.17,.04,.26,.07,.06,.02,.09,.02,.11-.05,.02-.07,.06-.15,.09-.21,.03-.06,.03-.1-.03-.14Z"/><path class="cls-1" d="M4.19,.05c-.04,.11-.11,.2-.16,.29-.02,.03-.05,.03-.08,.02-.12-.02-.24-.02-.35,0-.06,.01-.09-.01-.1-.07,.04,.04,.09,.05,.15,.04,.1-.01,.2-.01,.29,0,.05,0,.08-.01,.11-.05,.05-.08,.08-.17,.15-.24Z"/><path class="cls-1" d="M2.13,2.77c-.07-.1-.11-.21-.14-.33-.02-.07,.07-.09,.13-.11-.02,.05-.11,.04-.1,.11,0,.05,.04,.09,.06,.14,.02,.06,.06,.12,.07,.18Z"/><path class="cls-1" d="M2.88,6.81c-.08,.06-.17,.1-.26,.12,.08-.06,.17-.09,.26-.12Z"/><path class="cls-1" d="M7.26,6.71s.05,.1,.08,.15c.01,.03,0,.06-.04,.06,.03-.04,0-.07,0-.11-.01-.03-.04-.06-.03-.1Z"/><path class="cls-1" d="M4.82,9.22s.06,.01,.09,.03c-.03,0-.07,0-.09-.03Z"/><path class="cls-1" d="M7.87,3.91c-.02,.18-.1,.33-.23,.46,0-.02,.01-.03,.02-.04,.18-.18,.23-.4,.19-.65-.01-.09-.06-.15-.09-.23,.11,.14,.13,.29,.11,.46Z"/><path class="cls-1" d="M6.14,3.66c0,.11-.05,.2-.07,.31-.04,.28,.01,.55,.14,.81,.01,.03,.04,.05,.03,.09-.1-.11-.14-.24-.17-.38-.07-.26-.05-.51,.03-.77,0-.02,.01-.05,.03-.06Z"/><path class="cls-1" d="M7.67,4.36s-.02,.01-.03,.02c0-.02,.01-.03,.02-.04,.18-.18,.23-.4,.19-.65-.01-.09-.06-.15-.09-.23,.1,.08,.12,.2,.13,.32,.01,.23-.06,.43-.22,.59Z"/><path class="cls-1" d="M7.47,2.35s-.04,.04-.06,.04c-.03,0-.06,0-.06-.04,0-.03,.04-.03,.07-.03,.03,0,.04,0,.05,.03Z"/><path class="cls-1" d="M2.23,4.39c-.12-.07-.24-.11-.38-.09-.26,.04-.42,.26-.4,.53,.01,.17,.07,.32,.16,.46-.17-.22-.22-.45-.13-.72,.12-.33,.55-.37,.75-.19Z"/><path class="cls-1" d="M2.4,4.96s0,.05-.02,.08h0s.01-.07,.02-.11c.03-.18-.02-.35-.12-.5,.14,.15,.17,.34,.13,.53Z"/><path class="cls-1" d="M2.95,6.04c-.26,.29-.58,.45-.98,.46-.35,.01-.65-.1-.92-.32,.14,.09,.27,.18,.43,.24,.49,.18,1.12,.02,1.45-.38,.02-.02,.03-.05,.03-.08,.02,.03,0,.05-.01,.08Z"/><path class="cls-1" d="M2.95,6.05c-.22,.24-.49,.4-.82,.45-.38,.06-.72-.04-1.03-.26-.02-.01-.05-.03-.05-.06,.14,.09,.27,.18,.43,.24,.49,.18,1.12,.02,1.45-.38,.02-.02,.03-.05,.03-.08,.04,.04,0,.07-.01,.09Z"/><path class="cls-1" d="M2.23,4.39c-.12-.07-.24-.11-.38-.09-.26,.04-.42,.26-.4,.53,.01,.17,.07,.32,.16,.46-.11-.08-.14-.21-.17-.34-.06-.25,.03-.51,.24-.62,.17-.1,.35-.09,.52,.01,.02,.01,.03,.02,.04,.05Z"/><path class="cls-1" d="M2.38,5.04h0s.01-.07,.02-.11c.03-.18-.02-.35-.12-.5,.09,.05,.11,.13,.13,.21,.04,.13,.04,.27-.02,.4Z"/><path class="cls-1" d="M5.27,9.01v-.02c.01-.05,.04-.07,.1-.06,.11,.02,.23,.02,.34,0,.09-.02,.12,.02,.14,.09-.04-.06-.09-.08-.17-.07-.09,.01-.19,0-.28,0-.06,0-.09,.01-.12,.05Z"/></g></g></svg>