<svg xmlns="http://www.w3.org/2000/svg" xmlns:xlink="http://www.w3.org/1999/xlink" width="248.429" height="289.211" viewBox="0 0 248.429 289.211">
  <defs>
    <linearGradient id="linear-gradient" x1="0.5" y1="1.193" x2="0.5" y2="0.193" gradientUnits="objectBoundingBox">
      <stop offset="0" stop-color="#e6e6e6"/>
      <stop offset="0.22" stop-color="#f0f0f0"/>
      <stop offset="0.59" stop-color="#fbfbfb"/>
      <stop offset="1" stop-color="#fff"/>
    </linearGradient>
  </defs>
  <g id="Group_368" data-name="Group 368" transform="translate(-284.092 -1342)">
    <g id="Group_319" data-name="Group 319" transform="translate(284.092 1342)">
      <g id="BLue" transform="translate(0 0)">
        <g id="Layer_1" data-name="Layer 1" transform="translate(0)">
          <path id="Path_554" data-name="Path 554" d="M784.307,437.24l-.844.845h0Z" transform="translate(-545.137 -315.751)" fill="#22dce0"/>
          <path id="Path_555" data-name="Path 555" d="M750.843,470.728l-.833.847h-.019v-.022h0l.834-.833.019.019Z" transform="translate(-520.966 -339.929)" fill="#22dce0"/>
          <path id="Path_556" data-name="Path 556" d="M717.324,504.174l-.833.847a.031.031,0,0,1-.042,0,.028.028,0,0,1,0-.039h0l.847-.833a.028.028,0,0,1,.039,0,.031.031,0,0,1-.011.025Z" transform="translate(-496.739 -364.065)" fill="#22dce0"/>
          <path id="Path_557" data-name="Path 557" d="M683.82,537.614l-.834.847a.042.042,0,0,1-.058,0,.044.044,0,0,1,0-.061h0l.833-.833a.042.042,0,1,1,.058.058Z" transform="translate(-472.528 -388.191)" fill="#22dce0"/>
          <path id="Path_558" data-name="Path 558" d="M650.258,571.012l-.833.834a.075.075,0,1,1-.106-.106h0l.85-.833a.071.071,0,0,1,.1.1Z" transform="translate(-448.246 -412.265)" fill="#22dce0"/>
          <path id="Path_559" data-name="Path 559" d="M616.718,604.455l-.833.847a.114.114,0,0,1-.161-.161h0l.85-.834a.1.1,0,1,1,.144.147Z" transform="translate(-423.98 -436.378)" fill="#22dce0"/>
          <path id="Path_560" data-name="Path 560" d="M583.143,637.821l-.833.833a.156.156,0,0,1-.219,0,.15.15,0,0,1,0-.217h0l.833-.833a.151.151,0,0,1,.214.214Z" transform="translate(-399.681 -460.415)" fill="#22dce0"/>
          <path id="Path_561" data-name="Path 561" d="M549.583,671.314l-.833.85a.208.208,0,0,1-.294-.294h0l.85-.833a.2.2,0,0,1,.278.278Z" transform="translate(-375.384 -484.57)" fill="#22dce0"/>
          <path id="Path_562" data-name="Path 562" d="M515.827,704.69l-.833.834a.278.278,0,1,1-.383-.378h0l.85-.833a.278.278,0,0,1,.372.375Z" transform="translate(-350.886 -508.6)" fill="#22dce0"/>
          <path id="Path_563" data-name="Path 563" d="M482.372,738.013l-.833.85a.329.329,0,1,1-.467-.464h0l.85-.833a.325.325,0,0,1,.458.458Z" transform="translate(-326.694 -532.579)" fill="#22dce0"/>
          <path id="Path_564" data-name="Path 564" d="M448.465,771.23l-.928.8a.4.4,0,1,1-.522-.606h0l.025-.019.895-.753.019-.017a.395.395,0,0,1,.511.6Z" transform="translate(-302.061 -556.455)" fill="#22dce0"/>
          <path id="Path_565" data-name="Path 565" d="M403.858,786.633l-1.225-.092a.474.474,0,1,1,.072-.945h.039l1.156.1h.033a.467.467,0,0,1-.075.928Z" transform="translate(-269.801 -567.321)" fill="#22dce0"/>
          <path id="Path_566" data-name="Path 566" d="M362.605,764.985l-.85-.833a.556.556,0,0,1,.77-.778h0l.833.85a.54.54,0,1,1-.764.764Z" transform="translate(-240.523 -551.202)" fill="#22dce0"/>
          <path id="Path_567" data-name="Path 567" d="M328.675,731.154l-.85-.833a.62.62,0,1,1,.87-.881h0l.833.85a.614.614,0,0,1-.867.867Z" transform="translate(-215.945 -526.623)" fill="#22dce0"/>
          <path id="Path_568" data-name="Path 568" d="M295.008,697.6l-.85-.833a.693.693,0,0,1,.975-.984h0l.833.85a.686.686,0,0,1-.97.97Z" transform="translate(-191.632 -502.313)" fill="#22dce0"/>
          <path id="Path_569" data-name="Path 569" d="M261.307,663.989l-.85-.833a.759.759,0,0,1,1.07-1.078h0l.834.85a.756.756,0,0,1-1.067,1.067Z" transform="translate(-167.28 -477.961)" fill="#22dce0"/>
          <path id="Path_570" data-name="Path 570" d="M227.849,630.621l-.85-.833a.834.834,0,0,1,1.156-1.167h0l.833.85a.815.815,0,1,1-1.153,1.153Z" transform="translate(-143.169 -453.851)" fill="#22dce0"/>
          <path id="Path_571" data-name="Path 571" d="M193.941,596.792l-.85-.833a.882.882,0,0,1,1.242-1.253h0l.834.85a.876.876,0,1,1-1.239,1.239Z" transform="translate(-118.605 -429.283)" fill="#22dce0"/>
          <path id="Path_572" data-name="Path 572" d="M160.3,563.228l-.85-.833a.931.931,0,0,1,1.314-1.32h0l.833.833a.928.928,0,0,1-1.311,1.311Z" transform="translate(-94.299 -404.984)" fill="#22dce0"/>
          <path id="Path_573" data-name="Path 573" d="M126.675,529.643l-.85-.833a.975.975,0,1,1,1.37-1.389h0l.834.847a.967.967,0,0,1-1.367,1.367Z" transform="translate(-70.006 -380.673)" fill="#22dce0"/>
          <path id="Path_574" data-name="Path 574" d="M93.168,496.182l-.834-.833a1.011,1.011,0,0,1,1.425-1.434h0l.834.833a1.009,1.009,0,0,1-1.425,1.425Z" transform="translate(-45.832 -356.484)" fill="#22dce0"/>
          <path id="Path_575" data-name="Path 575" d="M59.515,462.558l-.834-.833a1.041,1.041,0,1,1,1.453-1.492h0l.834.847a1.036,1.036,0,0,1-1.464,1.464Z" transform="translate(-21.501 -332.142)" fill="#22dce0"/>
          <path id="Path_576" data-name="Path 576" d="M26.348,428.467l-.778-1.006a1.053,1.053,0,1,1,1.667-1.286h0l.047.058.683.889.047.058a1.052,1.052,0,1,1-1.667,1.284Z" transform="translate(2.343 -307.464)" fill="#22dce0"/>
          <path id="Path_577" data-name="Path 577" d="M14.46,382.924l.161-1.261a1.065,1.065,0,1,1,2.112.278h0v.075l-.144,1.111v.075a1.062,1.062,0,1,1-2.106-.278Z" transform="translate(10.208 -274.946)" fill="#22dce0"/>
          <path id="Path_578" data-name="Path 578" d="M36.07,342.288l.834-.833a1.074,1.074,0,1,1,1.517,1.52l-.834.834a1.075,1.075,0,1,1-1.517-1.52Z" transform="translate(-5.14 -246.351)" fill="#22dce0"/>
          <path id="Path_579" data-name="Path 579" d="M69.656,308.9l.834-.834a1.061,1.061,0,0,1,1.5,1.5l-.834.847a1.062,1.062,0,0,1-1.5-1.5Z" transform="translate(-29.427 -222.258)" fill="#22dce0"/>
          <path id="Path_580" data-name="Path 580" d="M103.2,275.368l.847-.834a1.047,1.047,0,1,1,1.481,1.481l-.847.834a1.048,1.048,0,0,1-1.484-1.481Z" transform="translate(-53.652 -198.016)" fill="#22dce0"/>
          <path id="Path_581" data-name="Path 581" d="M136.743,241.976l.847-.834a1.033,1.033,0,1,1,1.462,1.462l-.834.833a1.034,1.034,0,0,1-1.464-1.461Z" transform="translate(-77.891 -173.918)" fill="#22dce0"/>
          <path id="Path_582" data-name="Path 582" d="M170.316,208.6l.85-.834a1,1,0,0,1,1.411,1.411l-.834.85a1,1,0,1,1-1.423-1.414Z" transform="translate(-102.14 -149.825)" fill="#22dce0"/>
          <path id="Path_583" data-name="Path 583" d="M203.9,175.254l.834-.834a.959.959,0,0,1,1.356,1.356l-.833.847a.963.963,0,0,1-1.367-1.356Z" transform="translate(-126.386 -125.749)" fill="#22dce0"/>
          <path id="Path_584" data-name="Path 584" d="M237.472,141.913l.847-.834a.92.92,0,1,1,1.3,1.3l-.834.847a.922.922,0,1,1-1.306-1.3Z" transform="translate(-150.633 -101.679)" fill="#22dce0"/>
          <path id="Path_585" data-name="Path 585" d="M271.078,108.605l.833-.834a.864.864,0,0,1,1.222,1.222l-.834.834a.87.87,0,1,1-1.234-1.222Z" transform="translate(-174.899 -77.638)" fill="#22dce0"/>
          <path id="Path_586" data-name="Path 586" d="M304.952,75.417l.85-.834a.8.8,0,0,1,1.134,1.134l-.834.85a.808.808,0,0,1-1.147-1.136Z" transform="translate(-199.429 -53.706)" fill="#22dce0"/>
          <path id="Path_587" data-name="Path 587" d="M338.565,42.1l.85-.833a.739.739,0,0,1,1.045,1.045l-.833.85a.746.746,0,0,1-1.059-1.05Z" transform="translate(-223.696 -29.65)" fill="#22dce0"/>
          <path id="Path_588" data-name="Path 588" d="M372.668,9.589l1.022-.706a.667.667,0,0,1,.764,1.092l-.039.028-.936.664-.039.028a.679.679,0,0,1-.781-1.111Z" transform="translate(-248.263 -6.33)" fill="#22dce0"/>
          <path id="Path_589" data-name="Path 589" d="M418.05-.022,419.267.2a.595.595,0,0,1-.208,1.17h-.044l-1.134-.2h-.042a.606.606,0,0,1,.2-1.195Z" transform="translate(-280.734 0.031)" fill="#22dce0"/>
          <path id="Path_590" data-name="Path 590" d="M458.688,23.58l.833.85a.522.522,0,0,1-.736.739l-.85-.834a.528.528,0,1,1,.742-.75Z" transform="translate(-309.931 -16.904)" fill="#22dce0"/>
          <path id="Path_591" data-name="Path 591" d="M492.363,57.321l.834.85a.449.449,0,0,1-.625.645l-.85-.834a.454.454,0,1,1,.639-.645Z" transform="translate(-334.357 -41.304)" fill="#22dce0"/>
          <path id="Path_592" data-name="Path 592" d="M525.941,90.98l.833.85a.375.375,0,0,1-.531.528l-.85-.834a.386.386,0,1,1,.536-.556Z" transform="translate(-358.685 -65.608)" fill="#22dce0"/>
          <path id="Path_593" data-name="Path 593" d="M559.589,124.72l.833.85a.308.308,0,0,1-.436.433l-.847-.833a.312.312,0,1,1,.439-.445Z" transform="translate(-383.073 -89.999)" fill="#22dce0"/>
          <path id="Path_594" data-name="Path 594" d="M593.185,158.392l.833.833a.247.247,0,0,1-.347.35l-.85-.834a.253.253,0,0,1,.356-.358Z" transform="translate(-407.417 -114.325)" fill="#22dce0"/>
          <path id="Path_595" data-name="Path 595" d="M626.76,192.052l.833.85a.183.183,0,0,1,0,.261.181.181,0,0,1-.258,0l-.85-.833a.192.192,0,0,1,0-.278.189.189,0,0,1,.278,0Z" transform="translate(-431.733 -138.64)" fill="#22dce0"/>
          <path id="Path_596" data-name="Path 596" d="M660.379,225.724l.833.85a.138.138,0,0,1-.2.194l-.834-.834a.144.144,0,0,1,0-.2.142.142,0,0,1,.2,0Z" transform="translate(-456.08 -162.978)" fill="#22dce0"/>
          <path id="Path_597" data-name="Path 597" d="M693.879,259.345l.834.847a.1.1,0,0,1,0,.139.1.1,0,0,1-.139,0l-.85-.833a.1.1,0,0,1,.144-.144Z" transform="translate(-480.311 -187.266)" fill="#22dce0"/>
          <path id="Path_598" data-name="Path 598" d="M727.444,292.943l.833.833a.056.056,0,0,1,0,.083.058.058,0,0,1-.081,0l-.85-.833a.064.064,0,0,1,0-.086.061.061,0,0,1,.089,0Z" transform="translate(-504.602 -211.529)" fill="#22dce0"/>
          <path id="Path_599" data-name="Path 599" d="M760.989,326.52l.834.847a.036.036,0,0,1,0,.05.039.039,0,0,1-.053,0l-.834-.833a.033.033,0,0,1,0-.053.039.039,0,0,1,.053,0Z" transform="translate(-528.862 -235.793)" fill="#22dce0"/>
          <path id="Path_600" data-name="Path 600" d="M793.745,360.75l.639,1.017a.022.022,0,1,1-.031.031h0l-.636-1.011h0a.025.025,0,0,1,.039-.028Z" transform="translate(-552.543 -260.512)" fill="#22dce0"/>
          <path id="Path_601" data-name="Path 601" d="M802.388,406l-.278,1.167h0l.278-1.164h0Z" transform="translate(-558.606 -293.19)" fill="#22dce0"/>
          <path id="Path_602" data-name="Path 602" d="M55.446,126.763a4.4,4.4,0,0,1-3.115-1.289L6.211,79.354a21.227,21.227,0,0,1,0-30.006L54.251,1.29a4.4,4.4,0,1,1,6.227,6.227L12.437,55.557a12.425,12.425,0,0,0,0,17.567l46.121,46.121a4.4,4.4,0,0,1-3.115,7.518Z" transform="translate(248.429 172.38) rotate(180)" fill="#2e2d2d"/>
          <rect id="Rectangle_134" data-name="Rectangle 134" width="98.065" height="44.965" rx="22.482" transform="translate(98.065 130.275) rotate(180)" fill="#6fe8eb"/>
          <g id="Group_153" data-name="Group 153" transform="translate(36.341 11.426)" opacity="0.15">
            <path id="Path_603" data-name="Path 603" d="M144.322,524.361,60.9,440.947a15.1,15.1,0,0,1,0-21.349l83.426-83.426a15.1,15.1,0,0,1,21.346,0L249.093,419.6a15.1,15.1,0,0,1,0,21.349l-83.426,83.414A15.092,15.092,0,0,1,144.322,524.361Z" transform="translate(-56.474 -250.998)" fill="#fff" opacity="0"/>
            <path id="Path_604" data-name="Path 604" d="M144.322,521.491,60.9,438.068a15.1,15.1,0,0,1,0-21.349L144.322,333.3a15.092,15.092,0,0,1,21.346,0l83.426,83.423a15.1,15.1,0,0,1,0,21.349l-83.426,83.423A15.092,15.092,0,0,1,144.322,521.491Z" transform="translate(-56.474 -248.919)" fill="#fcfcfc" opacity="0.01"/>
            <path id="Path_605" data-name="Path 605" d="M144.322,518.614,60.9,435.186a15.1,15.1,0,0,1,0-21.349l83.426-83.42a15.092,15.092,0,0,1,21.346,0l83.426,83.423a15.1,15.1,0,0,1,0,21.349l-83.426,83.426a15.1,15.1,0,0,1-21.346,0Z" transform="translate(-56.474 -246.839)" fill="#fafafa" opacity="0.02"/>
            <path id="Path_606" data-name="Path 606" d="M144.322,515.712,60.9,432.287a15.092,15.092,0,0,1,0-21.346l83.426-83.434a15.092,15.092,0,0,1,21.346,0l83.426,83.434a15.092,15.092,0,0,1,0,21.346l-83.426,83.425A15.092,15.092,0,0,1,144.322,515.712Z" transform="translate(-56.475 -244.738)" fill="#f7f7f7" opacity="0.03"/>
            <path id="Path_607" data-name="Path 607" d="M144.322,512.854,60.9,429.428a15.092,15.092,0,0,1,0-21.346l83.426-83.425a15.092,15.092,0,0,1,21.346,0l83.426,83.425a15.092,15.092,0,0,1,0,21.346l-83.426,83.426A15.092,15.092,0,0,1,144.322,512.854Z" transform="translate(-56.475 -242.68)" fill="#f5f5f5" opacity="0.04"/>
            <path id="Path_608" data-name="Path 608" d="M144.322,509.98,60.9,426.557a15.1,15.1,0,0,1,0-21.349l83.426-83.425a15.1,15.1,0,0,1,21.346,0l83.426,83.425a15.1,15.1,0,0,1,0,21.349L165.668,509.98A15.092,15.092,0,0,1,144.322,509.98Z" transform="translate(-56.474 -240.606)" fill="#f2f2f2" opacity="0.05"/>
            <path id="Path_609" data-name="Path 609" d="M144.322,507.1,60.9,423.678a15.1,15.1,0,0,1,0-21.349l83.426-83.423a15.092,15.092,0,0,1,21.346,0l83.426,83.423a15.1,15.1,0,0,1,0,21.349L165.668,507.1A15.092,15.092,0,0,1,144.322,507.1Z" transform="translate(-56.474 -238.527)" fill="#f0f0f0" opacity="0.06"/>
            <path id="Path_610" data-name="Path 610" d="M144.322,504.224,60.9,420.8a15.1,15.1,0,0,1,0-21.349l83.426-83.423a15.092,15.092,0,0,1,21.346,0l83.426,83.423a15.1,15.1,0,0,1,0,21.349l-83.426,83.425a15.1,15.1,0,0,1-21.346,0Z" transform="translate(-56.474 -236.447)" fill="#ededed" opacity="0.07"/>
            <path id="Path_611" data-name="Path 611" d="M144.322,501.341,60.9,417.918a15.092,15.092,0,0,1,0-21.346l83.426-83.425a15.092,15.092,0,0,1,21.346,0l83.426,83.425a15.092,15.092,0,0,1,0,21.346l-83.426,83.423A15.092,15.092,0,0,1,144.322,501.341Z" transform="translate(-56.475 -234.368)" fill="#ebebeb" opacity="0.08"/>
            <path id="Path_612" data-name="Path 612" d="M144.322,498.464,60.9,415.038a15.092,15.092,0,0,1,0-21.346l83.426-83.426a15.092,15.092,0,0,1,21.346,0l83.426,83.417a15.092,15.092,0,0,1,0,21.346l-83.426,83.434A15.092,15.092,0,0,1,144.322,498.464Z" transform="translate(-56.475 -232.288)" fill="#e8e8e8" opacity="0.09"/>
            <path id="Path_613" data-name="Path 613" d="M144.322,495.59,60.9,412.17a15.1,15.1,0,0,1,0-21.349l83.426-83.428a15.1,15.1,0,0,1,21.346,0l83.426,83.425a15.1,15.1,0,0,1,0,21.349L165.668,495.59a15.092,15.092,0,0,1-21.346,0Z" transform="translate(-56.474 -230.214)" fill="#e6e6e6" opacity="0.1"/>
            <path id="Path_614" data-name="Path 614" d="M144.322,492.7,60.9,409.281a15.1,15.1,0,0,1,0-21.349l83.426-83.426a15.092,15.092,0,0,1,21.346,0l83.426,83.426a15.1,15.1,0,0,1,0,21.349L165.668,492.7A15.092,15.092,0,0,1,144.322,492.7Z" transform="translate(-56.474 -228.128)" fill="#e3e3e3" opacity="0.11"/>
            <path id="Path_615" data-name="Path 615" d="M144.322,489.834,60.9,406.408a15.1,15.1,0,0,1,0-21.349l83.426-83.423a15.092,15.092,0,0,1,21.346,0l83.426,83.423a15.1,15.1,0,0,1,0,21.349l-83.426,83.425a15.1,15.1,0,0,1-21.346,0Z" transform="translate(-56.474 -226.056)" fill="#e1e1e1" opacity="0.12"/>
            <path id="Path_616" data-name="Path 616" d="M144.322,486.954,60.9,403.528a15.092,15.092,0,0,1,0-21.346l83.426-83.425a15.092,15.092,0,0,1,21.346,0l83.426,83.425a15.092,15.092,0,0,1,0,21.346l-83.426,83.425a15.092,15.092,0,0,1-21.346,0Z" transform="translate(-56.475 -223.976)" fill="#dedede" opacity="0.13"/>
            <path id="Path_617" data-name="Path 617" d="M144.322,484.074,60.9,400.648a15.092,15.092,0,0,1,0-21.346l83.426-83.425a15.092,15.092,0,0,1,21.346,0L249.094,379.3a15.092,15.092,0,0,1,0,21.346l-83.426,83.425A15.092,15.092,0,0,1,144.322,484.074Z" transform="translate(-56.475 -221.896)" fill="#dcdcdc" opacity="0.14"/>
            <path id="Path_618" data-name="Path 618" d="M144.322,481.2,60.9,397.777a15.1,15.1,0,0,1,0-21.349L144.322,293a15.1,15.1,0,0,1,21.346,0l83.426,83.426a15.1,15.1,0,0,1,0,21.349L165.668,481.2A15.092,15.092,0,0,1,144.322,481.2Z" transform="translate(-56.474 -219.822)" fill="#d9d9d9" opacity="0.15"/>
            <path id="Path_619" data-name="Path 619" d="M144.322,478.327,60.9,394.9a15.1,15.1,0,0,1,0-21.349l83.426-83.423a15.092,15.092,0,0,1,21.346,0l83.426,83.423a15.1,15.1,0,0,1,0,21.349l-83.426,83.428A15.092,15.092,0,0,1,144.322,478.327Z" transform="translate(-56.474 -217.743)" fill="#d7d7d7" opacity="0.16"/>
            <path id="Path_620" data-name="Path 620" d="M144.322,475.444,60.9,392.018a15.1,15.1,0,0,1,0-21.349l83.426-83.423a15.092,15.092,0,0,1,21.346,0l83.426,83.423a15.1,15.1,0,0,1,0,21.349l-83.426,83.425A15.1,15.1,0,0,1,144.322,475.444Z" transform="translate(-56.474 -215.664)" fill="#d4d4d4" opacity="0.17"/>
            <path id="Path_621" data-name="Path 621" d="M144.322,472.564,60.9,389.149a15.092,15.092,0,0,1,0-21.346l83.426-83.437a15.092,15.092,0,0,1,21.346,0l83.426,83.425a15.092,15.092,0,0,1,0,21.346l-83.426,83.426A15.092,15.092,0,0,1,144.322,472.564Z" transform="translate(-56.475 -213.584)" fill="#d2d2d2" opacity="0.18"/>
            <path id="Path_622" data-name="Path 622" d="M144.322,469.7,60.9,386.273a15.092,15.092,0,0,1,0-21.346l83.426-83.42a15.092,15.092,0,0,1,21.346,0l83.426,83.42a15.092,15.092,0,0,1,0,21.346L165.668,469.7A15.092,15.092,0,0,1,144.322,469.7Z" transform="translate(-56.475 -211.518)" fill="#cfcfcf" opacity="0.19"/>
            <path id="Path_623" data-name="Path 623" d="M144.322,466.81,60.9,383.387a15.1,15.1,0,0,1,0-21.349l83.426-83.425a15.1,15.1,0,0,1,21.346,0l83.426,83.425a15.1,15.1,0,0,1,0,21.349L165.668,466.81a15.092,15.092,0,0,1-21.346,0Z" transform="translate(-56.474 -209.43)" fill="#cdcdcd" opacity="0.2"/>
            <path id="Path_624" data-name="Path 624" d="M144.322,463.931,60.9,380.508a15.1,15.1,0,0,1,0-21.349l83.426-83.423a15.092,15.092,0,0,1,21.346,0l83.426,83.423a15.1,15.1,0,0,1,0,21.349l-83.426,83.423a15.092,15.092,0,0,1-21.346,0Z" transform="translate(-56.474 -207.351)" fill="#cacaca" opacity="0.21"/>
            <path id="Path_625" data-name="Path 625" d="M144.322,461.054,60.9,377.628a15.1,15.1,0,0,1,0-21.349l83.426-83.423a15.092,15.092,0,0,1,21.346,0l83.426,83.423a15.1,15.1,0,0,1,0,21.349l-83.426,83.425A15.1,15.1,0,0,1,144.322,461.054Z" transform="translate(-56.474 -205.272)" fill="#c7c7c7" opacity="0.22"/>
            <path id="Path_626" data-name="Path 626" d="M144.322,458.174,60.9,374.748a15.1,15.1,0,0,1,0-21.349l83.426-83.423a15.092,15.092,0,0,1,21.346,0L249.093,353.4a15.1,15.1,0,0,1,0,21.349l-83.426,83.426A15.092,15.092,0,0,1,144.322,458.174Z" transform="translate(-56.474 -203.192)" fill="#c5c5c5" opacity="0.23"/>
            <path id="Path_627" data-name="Path 627" d="M144.322,455.3,60.9,371.868a15.092,15.092,0,0,1,0-21.346L144.322,267.1a15.092,15.092,0,0,1,21.346,0l83.426,83.425a15.092,15.092,0,0,1,0,21.346L165.668,455.3A15.092,15.092,0,0,1,144.322,455.3Z" transform="translate(-56.475 -201.112)" fill="#c2c2c2" opacity="0.24"/>
            <path id="Path_628" data-name="Path 628" d="M144.322,452.42,60.9,369a15.1,15.1,0,0,1,0-21.349l83.426-83.425a15.1,15.1,0,0,1,21.346,0l83.426,83.431a15.1,15.1,0,0,1,0,21.349L165.668,452.42A15.092,15.092,0,0,1,144.322,452.42Z" transform="translate(-56.474 -199.038)" fill="silver" opacity="0.25"/>
            <path id="Path_629" data-name="Path 629" d="M144.322,449.541,60.9,366.118a15.1,15.1,0,0,1,0-21.349l83.426-83.423a15.092,15.092,0,0,1,21.346,0l83.426,83.423a15.1,15.1,0,0,1,0,21.349l-83.426,83.423A15.092,15.092,0,0,1,144.322,449.541Z" transform="translate(-56.474 -196.96)" fill="#bdbdbd" opacity="0.26"/>
            <path id="Path_630" data-name="Path 630" d="M144.322,446.693,60.9,363.267a15.1,15.1,0,0,1,0-21.349l83.426-83.412a15.092,15.092,0,0,1,21.346,0l83.426,83.412a15.1,15.1,0,0,1,0,21.349l-83.426,83.426a15.1,15.1,0,0,1-21.346,0Z" transform="translate(-56.474 -194.909)" fill="#bbb" opacity="0.27"/>
            <path id="Path_631" data-name="Path 631" d="M144.322,443.784,60.9,360.358a15.1,15.1,0,0,1,0-21.349l83.426-83.423a15.092,15.092,0,0,1,21.346,0l83.426,83.423a15.1,15.1,0,0,1,0,21.349l-83.426,83.425a15.092,15.092,0,0,1-21.346,0Z" transform="translate(-56.474 -192.8)" fill="#b8b8b8" opacity="0.28"/>
            <path id="Path_632" data-name="Path 632" d="M144.322,440.9,60.9,357.478a15.092,15.092,0,0,1,0-21.346l83.426-83.425a15.092,15.092,0,0,1,21.346,0l83.426,83.425a15.092,15.092,0,0,1,0,21.346L165.668,440.9A15.092,15.092,0,0,1,144.322,440.9Z" transform="translate(-56.475 -190.72)" fill="#b6b6b6" opacity="0.29"/>
            <path id="Path_633" data-name="Path 633" d="M144.322,438.03,60.9,354.607a15.1,15.1,0,0,1,0-21.349l83.426-83.425a15.1,15.1,0,0,1,21.346,0l83.426,83.425a15.1,15.1,0,0,1,0,21.349L165.668,438.03a15.092,15.092,0,0,1-21.346,0Z" transform="translate(-56.474 -188.646)" fill="#b3b3b3" opacity="0.3"/>
            <path id="Path_634" data-name="Path 634" d="M144.322,435.151,60.9,351.728a15.1,15.1,0,0,1,0-21.349l83.426-83.423a15.092,15.092,0,0,1,21.346,0l83.426,83.423a15.1,15.1,0,0,1,0,21.349l-83.426,83.423a15.092,15.092,0,0,1-21.346,0Z" transform="translate(-56.474 -186.568)" fill="#b1b1b1" opacity="0.31"/>
            <path id="Path_635" data-name="Path 635" d="M144.322,432.274,60.9,348.848a15.1,15.1,0,0,1,0-21.349l83.426-83.423a15.092,15.092,0,0,1,21.346,0L249.093,327.5a15.1,15.1,0,0,1,0,21.349l-83.426,83.425a15.1,15.1,0,0,1-21.346,0Z" transform="translate(-56.474 -184.488)" fill="#aeaeae" opacity="0.32"/>
            <path id="Path_636" data-name="Path 636" d="M144.322,429.394,60.9,345.968a15.1,15.1,0,0,1,0-21.349L144.322,241.2a15.092,15.092,0,0,1,21.346,0l83.426,83.437a15.1,15.1,0,0,1,0,21.349l-83.426,83.412a15.092,15.092,0,0,1-21.346,0Z" transform="translate(-56.474 -182.408)" fill="#acacac" opacity="0.33"/>
            <path id="Path_637" data-name="Path 637" d="M144.322,426.514,60.9,343.088a15.092,15.092,0,0,1,0-21.346l83.426-83.425a15.092,15.092,0,0,1,21.346,0l83.426,83.425a15.092,15.092,0,0,1,0,21.346l-83.426,83.425A15.092,15.092,0,0,1,144.322,426.514Z" transform="translate(-56.475 -180.328)" fill="#a9a9a9" opacity="0.34"/>
            <path id="Path_638" data-name="Path 638" d="M144.322,423.64,60.9,340.206a15.1,15.1,0,0,1,0-21.349l83.426-83.414a15.1,15.1,0,0,1,21.346,0l83.426,83.426a15.1,15.1,0,0,1,0,21.349L165.668,423.64A15.092,15.092,0,0,1,144.322,423.64Z" transform="translate(-56.474 -178.254)" fill="#a7a7a7" opacity="0.35"/>
            <path id="Path_639" data-name="Path 639" d="M144.322,420.761,60.9,337.338a15.1,15.1,0,0,1,0-21.349l83.426-83.423a15.092,15.092,0,0,1,21.346,0l83.426,83.423a15.1,15.1,0,0,1,0,21.349l-83.426,83.423A15.092,15.092,0,0,1,144.322,420.761Z" transform="translate(-56.474 -176.176)" fill="#a4a4a4" opacity="0.36"/>
            <path id="Path_640" data-name="Path 640" d="M144.322,417.884,60.9,334.458a15.1,15.1,0,0,1,0-21.349l83.426-83.423a15.092,15.092,0,0,1,21.346,0l83.426,83.423a15.1,15.1,0,0,1,0,21.349l-83.426,83.425a15.1,15.1,0,0,1-21.346,0Z" transform="translate(-56.474 -174.096)" fill="#a2a2a2" opacity="0.37"/>
            <path id="Path_641" data-name="Path 641" d="M144.322,415,60.9,331.578a15.1,15.1,0,0,1,0-21.349l83.426-83.423a15.092,15.092,0,0,1,21.346,0l83.426,83.423a15.1,15.1,0,0,1,0,21.349L165.668,415a15.1,15.1,0,0,1-21.346,0Z" transform="translate(-56.474 -172.016)" fill="#9f9f9f" opacity="0.38"/>
            <path id="Path_642" data-name="Path 642" d="M144.322,412.124,60.9,328.7a15.092,15.092,0,0,1,0-21.346l83.426-83.426a15.092,15.092,0,0,1,21.346,0l83.426,83.426a15.092,15.092,0,0,1,0,21.346l-83.426,83.425A15.092,15.092,0,0,1,144.322,412.124Z" transform="translate(-56.475 -169.936)" fill="#9d9d9d" opacity="0.39"/>
            <path id="Path_643" data-name="Path 643" d="M144.322,409.25,60.9,325.827a15.1,15.1,0,0,1,0-21.349l83.426-83.425a15.1,15.1,0,0,1,21.346,0l83.426,83.425a15.1,15.1,0,0,1,0,21.349L165.668,409.25A15.092,15.092,0,0,1,144.322,409.25Z" transform="translate(-56.474 -167.862)" fill="#9a9a9a" opacity="0.4"/>
            <path id="Path_644" data-name="Path 644" d="M144.322,406.363,60.9,322.948a15.1,15.1,0,0,1,0-21.349l83.426-83.423a15.092,15.092,0,0,1,21.346,0L249.093,301.6a15.1,15.1,0,0,1,0,21.349l-83.426,83.414a15.092,15.092,0,0,1-21.346,0Z" transform="translate(-56.474 -165.784)" fill="#979797" opacity="0.41"/>
            <path id="Path_645" data-name="Path 645" d="M144.322,403.491,60.9,320.068a15.1,15.1,0,0,1,0-21.349L144.322,215.3a15.092,15.092,0,0,1,21.346,0l83.426,83.423a15.1,15.1,0,0,1,0,21.349l-83.426,83.423a15.092,15.092,0,0,1-21.346,0Z" transform="translate(-56.474 -163.704)" fill="#959595" opacity="0.42"/>
            <path id="Path_646" data-name="Path 646" d="M144.322,400.614,60.9,317.186a15.1,15.1,0,0,1,0-21.349l83.426-83.42a15.092,15.092,0,0,1,21.346,0l83.426,83.423a15.1,15.1,0,0,1,0,21.349l-83.426,83.425a15.1,15.1,0,0,1-21.346,0Z" transform="translate(-56.474 -161.624)" fill="#929292" opacity="0.43"/>
            <path id="Path_647" data-name="Path 647" d="M144.322,397.712,60.9,314.287a15.092,15.092,0,0,1,0-21.346l83.426-83.434a15.092,15.092,0,0,1,21.346,0l83.426,83.434a15.092,15.092,0,0,1,0,21.346l-83.426,83.425A15.092,15.092,0,0,1,144.322,397.712Z" transform="translate(-56.475 -159.522)" fill="#909090" opacity="0.44"/>
            <path id="Path_648" data-name="Path 648" d="M144.322,394.86,60.9,311.437a15.1,15.1,0,0,1,0-21.349l83.426-83.425a15.1,15.1,0,0,1,21.346,0l83.426,83.425a15.1,15.1,0,0,1,0,21.349L165.668,394.86a15.092,15.092,0,0,1-21.346,0Z" transform="translate(-56.474 -157.47)" fill="#8d8d8d" opacity="0.45"/>
            <path id="Path_649" data-name="Path 649" d="M144.322,391.981,60.9,308.558a15.1,15.1,0,0,1,0-21.349l83.426-83.423a15.092,15.092,0,0,1,21.346,0l83.426,83.423a15.1,15.1,0,0,1,0,21.349l-83.426,83.423a15.092,15.092,0,0,1-21.346,0Z" transform="translate(-56.474 -155.392)" fill="#8b8b8b" opacity="0.46"/>
            <path id="Path_650" data-name="Path 650" d="M144.322,389.1,60.9,305.678a15.1,15.1,0,0,1,0-21.349l83.426-83.423a15.092,15.092,0,0,1,21.346,0l83.426,83.423a15.1,15.1,0,0,1,0,21.349L165.668,389.1a15.092,15.092,0,0,1-21.346,0Z" transform="translate(-56.474 -153.312)" fill="#888" opacity="0.47"/>
            <path id="Path_651" data-name="Path 651" d="M144.322,386.224,60.9,302.8a15.1,15.1,0,0,1,0-21.349l83.426-83.423a15.092,15.092,0,0,1,21.346,0l83.426,83.423a15.1,15.1,0,0,1,0,21.349l-83.426,83.425a15.1,15.1,0,0,1-21.346,0Z" transform="translate(-56.474 -151.232)" fill="#868686" opacity="0.48"/>
            <path id="Path_652" data-name="Path 652" d="M144.322,383.341,60.9,299.918a15.092,15.092,0,0,1,0-21.346l83.426-83.425a15.092,15.092,0,0,1,21.346,0l83.426,83.425a15.092,15.092,0,0,1,0,21.346l-83.426,83.423A15.092,15.092,0,0,1,144.322,383.341Z" transform="translate(-56.475 -149.152)" fill="#838383" opacity="0.49"/>
            <path id="Path_653" data-name="Path 653" d="M144.322,380.47,60.9,297.047a15.1,15.1,0,0,1,0-21.349l83.426-83.425a15.1,15.1,0,0,1,21.346,0l83.426,83.417a15.1,15.1,0,0,1,0,21.349L165.668,380.47a15.092,15.092,0,0,1-21.346,0Z" transform="translate(-56.474 -147.078)" fill="#818181" opacity="0.5"/>
            <path id="Path_654" data-name="Path 654" d="M144.322,377.591,60.9,294.171a15.1,15.1,0,0,1,0-21.349L144.322,189.4a15.092,15.092,0,0,1,21.346,0l83.426,83.423a15.1,15.1,0,0,1,0,21.349l-83.426,83.423a15.092,15.092,0,0,1-21.346,0Z" transform="translate(-56.474 -145)" fill="#7e7e7e" opacity="0.5"/>
            <path id="Path_655" data-name="Path 655" d="M144.322,374.7,60.9,291.281a15.1,15.1,0,0,1,0-21.349l83.426-83.425a15.092,15.092,0,0,1,21.346,0l83.426,83.425a15.1,15.1,0,0,1,0,21.349L165.668,374.7a15.092,15.092,0,0,1-21.346,0Z" transform="translate(-56.474 -142.913)" fill="#7c7c7c" opacity="0.51"/>
            <path id="Path_656" data-name="Path 656" d="M144.322,371.834,60.9,288.408a15.1,15.1,0,0,1,0-21.349l83.426-83.423a15.092,15.092,0,0,1,21.346,0l83.426,83.423a15.1,15.1,0,0,1,0,21.349l-83.426,83.425a15.1,15.1,0,0,1-21.346,0Z" transform="translate(-56.474 -140.84)" fill="#797979" opacity="0.52"/>
            <path id="Path_657" data-name="Path 657" d="M144.322,368.954,60.9,285.528a15.092,15.092,0,0,1,0-21.346l83.426-83.425a15.092,15.092,0,0,1,21.346,0l83.426,83.426a15.092,15.092,0,0,1,0,21.346l-83.426,83.425a15.092,15.092,0,0,1-21.346,0Z" transform="translate(-56.475 -138.76)" fill="#777" opacity="0.53"/>
            <path id="Path_658" data-name="Path 658" d="M144.322,366.08,60.9,282.657a15.1,15.1,0,0,1,0-21.349l83.426-83.425a15.1,15.1,0,0,1,21.346,0l83.426,83.425a15.1,15.1,0,0,1,0,21.349L165.668,366.08a15.092,15.092,0,0,1-21.346,0Z" transform="translate(-56.474 -136.686)" fill="#747474" opacity="0.54"/>
            <path id="Path_659" data-name="Path 659" d="M144.322,363.2,60.9,279.778a15.1,15.1,0,0,1,0-21.349l83.426-83.423a15.092,15.092,0,0,1,21.346,0l83.426,83.423a15.1,15.1,0,0,1,0,21.349L165.668,363.2a15.092,15.092,0,0,1-21.346,0Z" transform="translate(-56.474 -134.608)" fill="#727272" opacity="0.55"/>
            <path id="Path_660" data-name="Path 660" d="M144.322,360.327,60.9,276.9a15.1,15.1,0,0,1,0-21.349l83.426-83.423a15.092,15.092,0,0,1,21.346,0l83.426,83.423a15.1,15.1,0,0,1,0,21.349l-83.426,83.428a15.092,15.092,0,0,1-21.346,0Z" transform="translate(-56.474 -132.528)" fill="#6f6f6f" opacity="0.56"/>
            <path id="Path_661" data-name="Path 661" d="M144.322,357.444,60.9,274.018a15.1,15.1,0,0,1,0-21.349l83.426-83.423a15.092,15.092,0,0,1,21.346,0l83.426,83.423a15.1,15.1,0,0,1,0,21.349l-83.426,83.426a15.1,15.1,0,0,1-21.346,0Z" transform="translate(-56.474 -130.448)" fill="#6d6d6d" opacity="0.57"/>
            <path id="Path_662" data-name="Path 662" d="M144.322,354.564,60.9,271.149a15.092,15.092,0,0,1,0-21.346l83.426-83.437a15.092,15.092,0,0,1,21.346,0l83.426,83.425a15.092,15.092,0,0,1,0,21.346l-83.426,83.425A15.092,15.092,0,0,1,144.322,354.564Z" transform="translate(-56.475 -128.368)" fill="#6a6a6a" opacity="0.58"/>
            <path id="Path_663" data-name="Path 663" d="M144.322,351.7,60.9,268.282a15.1,15.1,0,0,1,0-21.349l83.426-83.42a15.1,15.1,0,0,1,21.346,0l83.426,83.42a15.1,15.1,0,0,1,0,21.349L165.668,351.7a15.092,15.092,0,0,1-21.346,0Z" transform="translate(-56.474 -126.309)" fill="#686868" opacity="0.59"/>
            <path id="Path_664" data-name="Path 664" d="M144.322,348.811,60.9,265.388a15.1,15.1,0,0,1,0-21.349l83.426-83.423a15.092,15.092,0,0,1,21.346,0l83.426,83.423a15.1,15.1,0,0,1,0,21.349l-83.426,83.423a15.092,15.092,0,0,1-21.346,0Z" transform="translate(-56.474 -124.216)" fill="#656565" opacity="0.6"/>
            <path id="Path_665" data-name="Path 665" d="M144.322,345.931,60.9,262.508a15.1,15.1,0,0,1,0-21.349l83.426-83.423a15.092,15.092,0,0,1,21.346,0l83.426,83.423a15.1,15.1,0,0,1,0,21.349l-83.426,83.423a15.092,15.092,0,0,1-21.346,0Z" transform="translate(-56.474 -122.136)" fill="#626262" opacity="0.61"/>
            <path id="Path_666" data-name="Path 666" d="M144.322,343.054,60.9,259.628a15.1,15.1,0,0,1,0-21.349l83.426-83.423a15.092,15.092,0,0,1,21.346,0l83.426,83.423a15.1,15.1,0,0,1,0,21.349l-83.426,83.426a15.1,15.1,0,0,1-21.346,0Z" transform="translate(-56.474 -120.056)" fill="#606060" opacity="0.62"/>
            <path id="Path_667" data-name="Path 667" d="M144.322,340.174,60.9,256.748a15.092,15.092,0,0,1,0-21.346l83.426-83.425a15.092,15.092,0,0,1,21.346,0L249.094,235.4a15.092,15.092,0,0,1,0,21.346l-83.426,83.426A15.092,15.092,0,0,1,144.322,340.174Z" transform="translate(-56.475 -117.976)" fill="#5d5d5d" opacity="0.63"/>
            <path id="Path_668" data-name="Path 668" d="M144.322,337.311,60.9,253.877a15.1,15.1,0,0,1,0-21.349L144.322,149.1a15.1,15.1,0,0,1,21.346,0l83.426,83.425a15.1,15.1,0,0,1,0,21.349l-83.426,83.434a15.092,15.092,0,0,1-21.346,0Z" transform="translate(-56.474 -115.902)" fill="#5b5b5b" opacity="0.64"/>
            <path id="Path_669" data-name="Path 669" d="M144.322,334.421,60.9,251a15.1,15.1,0,0,1,0-21.349l83.426-83.423a15.092,15.092,0,0,1,21.346,0l83.426,83.428a15.1,15.1,0,0,1,0,21.349l-83.426,83.417a15.092,15.092,0,0,1-21.346,0Z" transform="translate(-56.474 -113.824)" fill="#585858" opacity="0.65"/>
            <path id="Path_670" data-name="Path 670" d="M144.322,331.541,60.9,248.118a15.1,15.1,0,0,1,0-21.349l83.426-83.423a15.092,15.092,0,0,1,21.346,0l83.426,83.423a15.1,15.1,0,0,1,0,21.349l-83.426,83.423a15.092,15.092,0,0,1-21.346,0Z" transform="translate(-56.474 -111.744)" fill="#565656" opacity="0.66"/>
            <path id="Path_671" data-name="Path 671" d="M144.322,328.693,60.9,245.267a15.1,15.1,0,0,1,0-21.349l83.426-83.412a15.092,15.092,0,0,1,21.346,0l83.426,83.412a15.1,15.1,0,0,1,0,21.349l-83.426,83.425a15.1,15.1,0,0,1-21.346,0Z" transform="translate(-56.474 -109.693)" fill="#535353" opacity="0.67"/>
            <path id="Path_672" data-name="Path 672" d="M144.322,325.784,60.9,242.358a15.092,15.092,0,0,1,0-21.346l83.426-83.425a15.092,15.092,0,0,1,21.346,0l83.426,83.425a15.092,15.092,0,0,1,0,21.346l-83.426,83.425A15.092,15.092,0,0,1,144.322,325.784Z" transform="translate(-56.475 -107.584)" fill="#515151" opacity="0.68"/>
            <path id="Path_673" data-name="Path 673" d="M144.322,322.91,60.9,239.487a15.1,15.1,0,0,1,0-21.349l83.426-83.425a15.1,15.1,0,0,1,21.346,0l83.426,83.425a15.1,15.1,0,0,1,0,21.349L165.668,322.91a15.092,15.092,0,0,1-21.346,0Z" transform="translate(-56.474 -105.51)" fill="#4e4e4e" opacity="0.69"/>
            <path id="Path_674" data-name="Path 674" d="M144.322,320.031,60.9,236.608a15.1,15.1,0,0,1,0-21.349l83.426-83.423a15.092,15.092,0,0,1,21.346,0l83.426,83.423a15.1,15.1,0,0,1,0,21.349l-83.426,83.423a15.092,15.092,0,0,1-21.346,0Z" transform="translate(-56.474 -103.432)" fill="#4c4c4c" opacity="0.7"/>
            <path id="Path_675" data-name="Path 675" d="M144.322,317.151,60.9,233.728a15.1,15.1,0,0,1,0-21.349l83.426-83.423a15.092,15.092,0,0,1,21.346,0l83.426,83.423a15.1,15.1,0,0,1,0,21.349l-83.426,83.423a15.092,15.092,0,0,1-21.346,0Z" transform="translate(-56.474 -101.352)" fill="#494949" opacity="0.71"/>
            <path id="Path_676" data-name="Path 676" d="M144.322,314.274,60.9,230.848a15.1,15.1,0,0,1,0-21.349l83.426-83.423a15.092,15.092,0,0,1,21.346,0L249.093,209.5a15.1,15.1,0,0,1,0,21.349l-83.426,83.425a15.1,15.1,0,0,1-21.346,0Z" transform="translate(-56.474 -99.272)" fill="#474747" opacity="0.72"/>
            <path id="Path_677" data-name="Path 677" d="M144.322,311.394,60.9,227.968a15.092,15.092,0,0,1,0-21.346L144.322,123.2a15.092,15.092,0,0,1,21.346,0l83.426,83.437a15.092,15.092,0,0,1,0,21.346l-83.426,83.414a15.092,15.092,0,0,1-21.346,0Z" transform="translate(-56.475 -97.192)" fill="#444" opacity="0.73"/>
            <path id="Path_678" data-name="Path 678" d="M144.322,308.52,60.9,225.1a15.1,15.1,0,0,1,0-21.349l83.426-83.425a15.1,15.1,0,0,1,21.346,0l83.426,83.425a15.1,15.1,0,0,1,0,21.349L165.668,308.52a15.092,15.092,0,0,1-21.346,0Z" transform="translate(-56.474 -95.119)" fill="#424242" opacity="0.74"/>
            <path id="Path_679" data-name="Path 679" d="M144.322,305.641,60.9,222.207a15.1,15.1,0,0,1,0-21.349l83.426-83.412a15.092,15.092,0,0,1,21.346,0l83.426,83.423a15.1,15.1,0,0,1,0,21.349l-83.426,83.423a15.092,15.092,0,0,1-21.346,0Z" transform="translate(-56.474 -93.04)" fill="#3f3f3f" opacity="0.75"/>
            <path id="Path_680" data-name="Path 680" d="M144.322,302.761,60.9,219.338a15.1,15.1,0,0,1,0-21.349l83.426-83.423a15.092,15.092,0,0,1,21.346,0l83.426,83.423a15.1,15.1,0,0,1,0,21.349l-83.426,83.423a15.092,15.092,0,0,1-21.346,0Z" transform="translate(-56.474 -90.96)" fill="#3d3d3d" opacity="0.76"/>
            <path id="Path_681" data-name="Path 681" d="M144.322,299.884,60.9,216.458a15.1,15.1,0,0,1,0-21.349l83.426-83.423a15.092,15.092,0,0,1,21.346,0l83.426,83.423a15.1,15.1,0,0,1,0,21.349l-83.426,83.426a15.1,15.1,0,0,1-21.346,0Z" transform="translate(-56.474 -88.88)" fill="#3a3a3a" opacity="0.77"/>
            <path id="Path_682" data-name="Path 682" d="M144.322,297,60.9,213.578a15.092,15.092,0,0,1,0-21.346l83.426-83.425a15.092,15.092,0,0,1,21.346,0l83.426,83.425a15.092,15.092,0,0,1,0,21.346L165.668,297A15.092,15.092,0,0,1,144.322,297Z" transform="translate(-56.475 -86.8)" fill="#383838" opacity="0.78"/>
            <path id="Path_683" data-name="Path 683" d="M144.322,294.13,60.9,210.707a15.1,15.1,0,0,1,0-21.349l83.426-83.425a15.1,15.1,0,0,1,21.346,0l83.426,83.425a15.1,15.1,0,0,1,0,21.349L165.668,294.13a15.092,15.092,0,0,1-21.346,0Z" transform="translate(-56.474 -84.727)" fill="#353535" opacity="0.79"/>
            <path id="Path_684" data-name="Path 684" d="M144.322,291.251,60.9,207.828a15.1,15.1,0,0,1,0-21.349l83.426-83.423a15.092,15.092,0,0,1,21.346,0l83.426,83.423a15.1,15.1,0,0,1,0,21.349l-83.426,83.423a15.092,15.092,0,0,1-21.346,0Z" transform="translate(-56.474 -82.648)" fill="#323232" opacity="0.8"/>
            <path id="Path_685" data-name="Path 685" d="M144.322,288.363,60.9,204.948a15.1,15.1,0,0,1,0-21.349l83.426-83.423a15.092,15.092,0,0,1,21.346,0L249.093,183.6a15.1,15.1,0,0,1,0,21.349l-83.426,83.414a15.092,15.092,0,0,1-21.346,0Z" transform="translate(-56.474 -80.568)" fill="#303030" opacity="0.81"/>
            <path id="Path_686" data-name="Path 686" d="M144.322,285.494,60.9,202.068a15.1,15.1,0,0,1,0-21.349L144.322,97.3a15.092,15.092,0,0,1,21.346,0l83.426,83.423a15.1,15.1,0,0,1,0,21.349l-83.426,83.425a15.1,15.1,0,0,1-21.346,0Z" transform="translate(-56.474 -78.488)" fill="#2d2d2d" opacity="0.82"/>
            <path id="Path_687" data-name="Path 687" d="M144.322,282.614,60.9,199.186a15.092,15.092,0,0,1,0-21.346l83.426-83.423a15.092,15.092,0,0,1,21.346,0l83.426,83.425a15.092,15.092,0,0,1,0,21.346l-83.426,83.425A15.092,15.092,0,0,1,144.322,282.614Z" transform="translate(-56.475 -76.408)" fill="#2b2b2b" opacity="0.83"/>
            <path id="Path_688" data-name="Path 688" d="M144.322,279.718,60.9,196.3a15.1,15.1,0,0,1,0-21.349l83.426-83.434a15.1,15.1,0,0,1,21.346,0l83.426,83.434a15.1,15.1,0,0,1,0,21.349l-83.426,83.423a15.092,15.092,0,0,1-21.346,0Z" transform="translate(-56.474 -74.313)" fill="#282828" opacity="0.84"/>
            <path id="Path_689" data-name="Path 689" d="M144.322,276.86,60.9,193.437a15.1,15.1,0,0,1,0-21.349l83.426-83.425a15.1,15.1,0,0,1,21.346,0l83.426,83.425a15.1,15.1,0,0,1,0,21.349L165.668,276.86a15.092,15.092,0,0,1-21.346,0Z" transform="translate(-56.474 -72.255)" fill="#262626" opacity="0.85"/>
            <path id="Path_690" data-name="Path 690" d="M144.322,273.981,60.9,190.558a15.1,15.1,0,0,1,0-21.349l83.426-83.423a15.092,15.092,0,0,1,21.346,0l83.426,83.423a15.1,15.1,0,0,1,0,21.349l-83.426,83.423a15.092,15.092,0,0,1-21.346,0Z" transform="translate(-56.474 -70.176)" fill="#232323" opacity="0.86"/>
            <path id="Path_691" data-name="Path 691" d="M144.322,271.1,60.9,187.678a15.1,15.1,0,0,1,0-21.349l83.426-83.423a15.092,15.092,0,0,1,21.346,0l83.426,83.423a15.1,15.1,0,0,1,0,21.349L165.668,271.1a15.1,15.1,0,0,1-21.346,0Z" transform="translate(-56.474 -68.096)" fill="#212121" opacity="0.87"/>
            <path id="Path_692" data-name="Path 692" d="M144.322,268.224,60.9,184.8a15.092,15.092,0,0,1,0-21.346l83.426-83.425a15.092,15.092,0,0,1,21.346,0l83.426,83.425a15.092,15.092,0,0,1,0,21.346l-83.426,83.425A15.092,15.092,0,0,1,144.322,268.224Z" transform="translate(-56.475 -66.017)" fill="#1e1e1e" opacity="0.88"/>
            <path id="Path_693" data-name="Path 693" d="M144.322,265.341,60.9,181.921a15.1,15.1,0,0,1,0-21.349l83.426-83.425a15.092,15.092,0,0,1,21.346,0l83.426,83.425a15.1,15.1,0,0,1,0,21.349l-83.426,83.42a15.092,15.092,0,0,1-21.346,0Z" transform="translate(-56.474 -63.937)" fill="#1c1c1c" opacity="0.89"/>
            <path id="Path_694" data-name="Path 694" d="M144.322,262.47,60.9,179.047a15.1,15.1,0,0,1,0-21.349l83.426-83.426a15.1,15.1,0,0,1,21.346,0l83.426,83.417a15.1,15.1,0,0,1,0,21.349L165.668,262.47a15.092,15.092,0,0,1-21.346,0Z" transform="translate(-56.474 -61.863)" fill="#191919" opacity="0.9"/>
            <path id="Path_695" data-name="Path 695" d="M144.322,259.591,60.9,176.171a15.1,15.1,0,0,1,0-21.349L144.322,71.4a15.092,15.092,0,0,1,21.346,0l83.426,83.423a15.1,15.1,0,0,1,0,21.349l-83.426,83.423a15.092,15.092,0,0,1-21.346,0Z" transform="translate(-56.474 -59.784)" fill="#171717" opacity="0.91"/>
            <path id="Path_696" data-name="Path 696" d="M144.322,256.707,60.9,173.281a15.1,15.1,0,0,1,0-21.349l83.426-83.425a15.092,15.092,0,0,1,21.346,0l83.426,83.425a15.1,15.1,0,0,1,0,21.349l-83.426,83.425a15.1,15.1,0,0,1-21.346,0Z" transform="translate(-56.474 -57.697)" fill="#141414" opacity="0.92"/>
            <path id="Path_697" data-name="Path 697" d="M144.322,253.834,60.9,170.408a15.092,15.092,0,0,1,0-21.346l83.426-83.426a15.092,15.092,0,0,1,21.346,0l83.426,83.425a15.092,15.092,0,0,1,0,21.346l-83.426,83.425A15.092,15.092,0,0,1,144.322,253.834Z" transform="translate(-56.475 -55.625)" fill="#121212" opacity="0.93"/>
            <path id="Path_698" data-name="Path 698" d="M144.322,250.954,60.9,167.531a15.1,15.1,0,0,1,0-21.349l83.426-83.425a15.092,15.092,0,0,1,21.346,0l83.426,83.425a15.1,15.1,0,0,1,0,21.349l-83.426,83.423a15.092,15.092,0,0,1-21.346,0Z" transform="translate(-56.474 -53.545)" fill="#0f0f0f" opacity="0.94"/>
            <path id="Path_699" data-name="Path 699" d="M144.322,248.08,60.9,164.657a15.1,15.1,0,0,1,0-21.349l83.426-83.426a15.1,15.1,0,0,1,21.346,0l83.426,83.426a15.1,15.1,0,0,1,0,21.349L165.668,248.08a15.092,15.092,0,0,1-21.346,0Z" transform="translate(-56.474 -51.471)" fill="#0d0d0d" opacity="0.95"/>
            <path id="Path_700" data-name="Path 700" d="M144.322,245.2,60.9,161.778a15.1,15.1,0,0,1,0-21.349l83.426-83.423a15.092,15.092,0,0,1,21.346,0l83.426,83.423a15.1,15.1,0,0,1,0,21.349L165.668,245.2a15.092,15.092,0,0,1-21.346,0Z" transform="translate(-56.474 -49.392)" fill="#0a0a0a" opacity="0.96"/>
            <path id="Path_701" data-name="Path 701" d="M144.322,242.327,60.9,158.9a15.1,15.1,0,0,1,0-21.349l83.426-83.423a15.092,15.092,0,0,1,21.346,0l83.426,83.423a15.1,15.1,0,0,1,0,21.349l-83.426,83.428a15.1,15.1,0,0,1-21.346,0Z" transform="translate(-56.474 -47.312)" fill="#080808" opacity="0.97"/>
            <path id="Path_702" data-name="Path 702" d="M144.322,239.444,60.9,156.018a15.092,15.092,0,0,1,0-21.346l83.426-83.425a15.092,15.092,0,0,1,21.346,0l83.426,83.423a15.092,15.092,0,0,1,0,21.346l-83.426,83.428a15.092,15.092,0,0,1-21.346,0Z" transform="translate(-56.475 -45.233)" fill="#050505" opacity="0.98"/>
            <path id="Path_703" data-name="Path 703" d="M144.322,236.564,60.9,153.149a15.1,15.1,0,0,1,0-21.349l83.426-83.434a15.092,15.092,0,0,1,21.346,0l83.426,83.425a15.1,15.1,0,0,1,0,21.349l-83.426,83.423a15.092,15.092,0,0,1-21.346,0Z" transform="translate(-56.474 -43.153)" fill="#030303" opacity="0.99"/>
            <path id="Path_704" data-name="Path 704" d="M144.322,233.7,60.9,150.282a15.1,15.1,0,0,1,0-21.349l83.426-83.42a15.1,15.1,0,0,1,21.346,0l83.426,83.42a15.1,15.1,0,0,1,0,21.349L165.668,233.7a15.092,15.092,0,0,1-21.346,0Z" transform="translate(-56.474 -41.093)"/>
          </g>
          <path id="Path_705" data-name="Path 705" d="M144.322,232.7,60.9,149.276a15.1,15.1,0,0,1,0-21.349l83.426-83.414a15.1,15.1,0,0,1,21.346,0l83.426,83.414a15.1,15.1,0,0,1,0,21.349L165.668,232.7a15.092,15.092,0,0,1-21.346,0Z" transform="translate(-20.134 -28.945)" fill="url(#linear-gradient)"/>
          <path id="Path_706" data-name="Path 706" d="M155.171,242.752,81.992,169.573a19.865,19.865,0,0,1,0-28.1l73.179-71.229a19.871,19.871,0,0,1,28.1,0l73.171,71.229a19.865,19.865,0,0,1,0,28.1l-73.171,73.179a19.865,19.865,0,0,1-28.1,0Z" transform="translate(-34.263 -46.429)" fill="#f9f9f9"/>
          <ellipse id="Ellipse_68" data-name="Ellipse 68" cx="7.927" cy="7.927" rx="7.927" ry="7.927" transform="matrix(-0.156, 0.988, -0.988, -0.156, 29.651, 101.003)" fill="#fff"/>
        </g>
      </g>
    </g>
  </g>
</svg>
