<?xml version="1.0" encoding="UTF-8"?><svg id="Layer_2" xmlns="http://www.w3.org/2000/svg" viewBox="0 0 9.39 8.8"><defs><style>.cls-1{fill:#fff;}</style></defs><g id="Layer_1-2"><g><path class="cls-1" d="M4.8,2c-1.2,0-2.18,.98-2.18,2.18s.98,2.18,2.18,2.18,2.18-.97,2.18-2.18-.97-2.18-2.18-2.18Zm.8,2.14c-.17,.05-.32,.1-.49,.15-.07,.03-.15,.05-.19,.12-.05,.06-.11,.08-.17,.08-.14,0-.26-.09-.26-.22,0-.06-.03-.09-.07-.13-.28-.25-.56-.49-.84-.72,0-.02-.03-.03-.04-.04-.05-.05-.06-.1-.03-.14,.04-.05,.09-.04,.14,0,.13,.09,.26,.19,.38,.29,.18,.14,.37,.28,.55,.42,.04,.04,.07,.06,.13,.05,.04,0,.07,0,.1,0,.08,.06,.17,.03,.25,0,.17-.04,.32-.06,.49-.1,.06,0,.14,.03,.16,.07,0,.06-.04,.13-.1,.15Z"/><g><path class="cls-1" d="M0,3.37c.05,.03,.05-.02,.07-.04,.14-.18,.42-.16,.53,.04,.08,.14,.03,.32-.1,.41-.14,.09-.32,.06-.42-.07t-.07-.04v-.3Zm.13,.15c0,.1,.08,.19,.18,.19,.1,0,.19-.09,.19-.19,0-.1-.08-.18-.18-.19-.11,0-.19,.08-.19,.18Z"/><path class="cls-1" d="M9.39,3.72s-.03,.05-.05,.08c-.08,.13-.23,.18-.38,.14-.13-.04-.24-.17-.23-.31,0-.16,.1-.28,.24-.32,.14-.04,.29,.02,.37,.15,.01,.02,.03,.04,.04,.07v.19Zm-.33,.1c.11,0,.2-.09,.2-.2,0-.1-.09-.19-.2-.2-.11,0-.2,.09-.2,.2,0,.11,.09,.19,.2,.19Z"/><path class="cls-1" d="M5.15,0s0,.04,0,.05c.04,.06,.05,.13-.01,.18-.05,.05-.12,.05-.17,0-.06-.05-.06-.12-.01-.18,.01-.01,.05-.03,0-.05h.18Z"/><path class="cls-1" d="M7.77,4.28c0,1.37-.97,2.59-2.35,2.9-1.01,.22-1.91-.01-2.69-.68-.05-.04-.08-.05-.12,0-.03,.04-.06,.07-.1,.1-.02,.02-.03,.04-.06,.03-.02,0-.02-.03-.02-.05-.02-.18-.03-.37-.05-.55,0-.06,0-.08,.07-.07,.18,.02,.36,.03,.54,.05,.02,0,.05,0,.06,.02,.01,.03-.01,.04-.03,.06h0q-.13,.14,.01,.25c.49,.4,1.06,.6,1.69,.6,1.3,0,2.36-.87,2.65-2.05,.16-.65,.09-1.28-.22-1.87-.04-.08-.03-.12,.05-.16,.03-.01,.06-.03,.09-.05,.07-.06,.11-.03,.14,.04,.22,.44,.34,.9,.33,1.44Z"/><path class="cls-1" d="M8.73,7.97s-.02,.05-.03,.06c-.03,.04-.07,.08-.1,.11-.11,.11-.11,.11-.24,.03-.11-.07-.25-.01-.27,.12-.03,.16-.03,.13-.16,.14-.04,0-.08,0-.11,0-.1,0-.15-.03-.16-.14-.01-.14-.16-.19-.28-.11q-.11,.07-.21-.01s-.04-.04-.06-.06q-.11-.11-.03-.24c.07-.11,.02-.23-.1-.27-.05-.01-.11,0-.14-.04-.03-.06-.02-.13-.03-.2,0-.03,0-.06,0-.09,0-.07,.03-.1,.1-.1,.18-.02,.24-.17,.13-.31-.05-.06-.05-.1,0-.15,.03-.03,.06-.07,.1-.1q.11-.1,.23-.02c.12,.07,.26,.01,.28-.13,.02-.13,.04-.12,.16-.13,.03,0,.06,0,.09,0,.17,0,.17,0,.19,.15,.02,.13,.17,.19,.28,.11,.1-.07,.1-.08,.21,.02,.02,.02,.04,.04,.06,.06q.1,.11,.02,.24c-.07,.11,0,.25,.13,.27q.13,.03,.14,.16s0,.07,0,.11c0,.12,0,.15-.14,.16-.15,.02-.2,.17-.11,.29,.02,.03,.05,.05,.05,.09Zm-.87-.17c.24,0,.43-.18,.43-.42,0-.23-.19-.43-.42-.43-.24,0-.43,.19-.43,.42,0,.23,.19,.42,.42,.43Z"/><path class="cls-1" d="M2.55,2.16s.06-.08,.11-.11c.03,0,.05-.02,.07-.04,.18-.17,.37-.3,.58-.41,.49-.26,1.02-.38,1.57-.35,.2,.01,.39,.03,.59,.08,.49,.12,.92,.35,1.3,.69,.05,.04,.07,.04,.12,0,.03-.03,.06-.1,.11-.09,.04,.01,0,.08,.02,.12,0,0,0,.02,0,.03,.01,.13,.03,.27,.04,.4,0,.06-.02,.08-.08,.07-.16-.03-.33-.04-.49-.05-.02,0-.04,0-.05-.01-.01-.02,.01-.04,.03-.05,.04-.04,.07-.08,.11-.11,.03-.03,.03-.06,0-.09-.04-.04-.09-.08-.13-.11-.47-.38-1.02-.58-1.63-.6-.34-.01-.66,.05-.98,.15-.35,.12-.67,.31-.94,.56-.3,.27-.53,.59-.68,.96-.12,.28-.19,.58-.21,.89-.03,.45,.05,.89,.25,1.3,.03,.06,.1,.13,.07,.18-.03,.05-.12,.07-.17,.11-.04,.03-.06,.02-.08-.02-.19-.35-.3-.73-.33-1.12-.02-.31-.01-.63,.06-.94,.11-.45,.3-.86,.59-1.22,.05-.06,.12-.11,.15-.19Z"/><path class="cls-1" d="M2.17,1.96s-.06-.03-.09-.05c-.13-.1-.28-.04-.3,.12-.01,.1-.06,.13-.15,.12-.03,0-.06,0-.09,0q-.16,0-.2-.15c-.04-.13-.17-.18-.28-.11q-.12,.08-.22-.02s-.05-.04-.07-.07c-.1-.12-.1-.12-.02-.22,.09-.11,.02-.26-.12-.28-.11-.01-.13-.06-.13-.15,0-.04,0-.08,0-.11q0-.13,.14-.16c.14-.03,.2-.17,.11-.29-.07-.08-.06-.14,.01-.2,.02-.02,.04-.05,.07-.07q.11-.1,.24-.02c.11,.07,.24,.02,.27-.11,.04-.14,.04-.14,.18-.15,.03,0,.06,0,.1,0,.09,0,.14,.03,.16,.13,.02,.16,.17,.21,.29,.12,.07-.06,.13-.06,.19,.01,.02,.02,.05,.04,.07,.07q.11,.11,.03,.25c-.06,.1,0,.23,.11,.27q.16,.04,.16,.21s0,.06,0,.09c0,.08-.03,.12-.12,.14-.17,.02-.23,.17-.12,.3,.05,.07,.05,.12,0,.17-.05,.05-.1,.11-.16,.15-.02,.01-.03,.02-.05,.03Zm-.61-.44c.24,0,.44-.19,.43-.43,0-.23-.2-.42-.43-.43-.23,0-.43,.19-.43,.43,0,.23,.19,.42,.43,.42Z"/><path class="cls-1" d="M2.55,2.16c-.02,.08-.1,.13-.15,.19-.29,.36-.49,.77-.59,1.22-.07,.31-.08,.63-.06,.94,.03,.4,.14,.77,.33,1.12,.02,.04,.03,.05,.08,.02,.06-.04,.14-.06,.17-.11,.03-.05-.04-.12-.07-.18-.19-.41-.27-.85-.25-1.3,.02-.31,.09-.6,.21-.89,.16-.37,.38-.69,.68-.96,.28-.25,.59-.44,.94-.56,.32-.11,.64-.17,.98-.15,.61,.03,1.15,.22,1.63,.6,.05,.04,.09,.08,.13,.11,.03,.03,.03,.06,0,.09-.04,.04-.08,.07-.11,.11-.01,.01-.04,.02-.03,.05,0,.02,.03,.01,.05,.01,.16,.02,.33,.02,.49,.05,.05,.01,.08,0,.08-.07-.02-.13-.03-.27-.04-.4,0,0,0-.02,0-.03-.01-.04,.02-.11-.02-.12-.05-.01-.08,.05-.11,.09-.04,.04-.07,.04-.12,0-.38-.33-.81-.57-1.3-.69-.19-.05-.39-.07-.59-.08-.56-.03-1.08,.09-1.57,.35-.21,.11-.41,.25-.58,.41-.02,.02-.04,.05-.07,.04,.19-.21,.43-.37,.68-.5,1.12-.58,2.44-.42,3.4,.4,.1,.08,.1,.08,.19-.01,.03-.03,.05-.08,.08-.06,.04,.01,.02,.07,.02,.1,.02,.17,.03,.34,.05,.51,0,.05,0,.08-.07,.07-.19-.02-.38-.04-.58-.05-.02,0-.04,0-.04-.02,0-.02,.01-.03,.02-.04,.04-.04,.07-.08,.11-.11,.05-.05,.05-.08,0-.13-.32-.28-.68-.47-1.08-.58-1.15-.3-2.33,.13-2.98,1.13-.55,.85-.59,1.75-.17,2.66,0,.02,.02,.04,.03,.06,.04,.05,.02,.08-.03,.11-.04,.02-.09,.05-.13,.08-.06,.05-.09,.03-.13-.03-.59-1.09-.4-2.56,.46-3.45,.01-.01,.02-.03,.04-.03Z"/><path class="cls-1" d="M2.74,7.78c.18,0,.33,.15,.33,.33,0,.18-.15,.33-.33,.33-.19,0-.33-.14-.33-.33,0-.18,.15-.33,.33-.33Zm0,.53c.11,0,.2-.1,.2-.2,0-.1-.09-.19-.2-.19-.1,0-.2,.09-.2,.19,0,.1,.1,.2,.2,.2Z"/><path class="cls-1" d="M7.04,1.25c0,.13-.12,.25-.25,.24-.14,0-.24-.11-.24-.25,0-.14,.11-.24,.25-.24,.14,0,.24,.11,.24,.25Z"/><path class="cls-1" d="M5.3,7.86c0,.13-.11,.24-.25,.24-.14,0-.25-.11-.25-.25,0-.13,.11-.24,.25-.24,.14,0,.25,.11,.25,.25Z"/><path class="cls-1" d="M1.19,5.44c-.14,0-.24-.11-.24-.24,0-.14,.11-.25,.25-.25,.13,0,.24,.11,.24,.25,0,.13-.11,.24-.25,.24Z"/><path class="cls-1" d="M1.07,4.18c-.14,0-.24-.11-.24-.25,0-.14,.11-.25,.25-.24,.13,0,.25,.12,.25,.25,0,.14-.11,.24-.25,.24Z"/><path class="cls-1" d="M1.74,6.1c.14,0,.24,.1,.24,.24,0,.14-.11,.24-.25,.24-.13,0-.24-.11-.24-.25,0-.14,.1-.24,.25-.24Z"/><path class="cls-1" d="M8.24,3.52c-.14,0-.25-.11-.25-.24,0-.13,.11-.25,.25-.25,.14,0,.25,.11,.25,.24,0,.14-.1,.24-.24,.24Z"/><path class="cls-1" d="M5.89,.72c0,.14-.1,.24-.24,.24-.14,0-.24-.11-.24-.25,0-.13,.11-.25,.25-.25,.14,0,.24,.11,.24,.25Z"/><path class="cls-1" d="M8.35,4.78c-.14,0-.24-.1-.24-.24,0-.14,.11-.24,.25-.24,.13,0,.25,.12,.25,.25,0,.14-.11,.24-.25,.24Z"/><path class="cls-1" d="M2.39,7.23c0-.14,.1-.25,.24-.25,.14,0,.25,.11,.25,.24,0,.14-.11,.25-.24,.25-.14,0-.25-.11-.25-.24Z"/><path class="cls-1" d="M7.94,2.14c0,.14-.11,.24-.25,.24-.14,0-.24-.11-.24-.25,0-.14,.11-.24,.25-.24,.14,0,.24,.11,.24,.25Z"/><path class="cls-1" d="M4.62,.61c0,.14-.1,.24-.24,.24-.14,0-.24-.11-.25-.24,0-.13,.11-.25,.24-.25,.14,0,.24,.11,.24,.25Z"/><path class="cls-1" d="M3.79,7.51c.13,0,.25,.11,.24,.25,0,.13-.11,.24-.25,.24-.14,0-.25-.11-.24-.25,0-.14,.11-.24,.25-.24Z"/><path class="cls-1" d="M6.87,.29c0,.15-.11,.26-.25,.26-.15,0-.26-.11-.26-.26,0-.14,.11-.25,.26-.26,.15,0,.26,.11,.26,.25Zm-.13,0c0-.07-.06-.13-.13-.13-.06,0-.12,.06-.12,.12,0,.07,.06,.13,.13,.13,.07,0,.13-.06,.13-.13Z"/><path class="cls-1" d="M6.11,7.82c-.14,0-.26-.11-.26-.25,0-.15,.11-.26,.26-.26,.14,0,.26,.12,.26,.26,0,.14-.12,.26-.26,.26Zm.12-.25c0-.07-.06-.13-.12-.13-.06,0-.13,.06-.13,.13,0,.06,.06,.12,.12,.13,.07,0,.13-.05,.14-.12Z"/><path class="cls-1" d="M3.4,.82s-.05-.03-.05-.06c-.03-.1-.09-.16-.19-.19-.03,0-.06-.02-.06-.05,0-.04,.04-.05,.06-.05,.1-.03,.15-.09,.18-.18,0-.03,.02-.06,.06-.06,.03,0,.04,.03,.05,.06,.03,.1,.09,.16,.19,.19,.03,0,.06,.02,.06,.06,0,.03-.03,.04-.06,.05-.1,.03-.16,.1-.19,.2,0,.03-.02,.05-.05,.05Z"/><path class="cls-1" d="M.72,5.12s-.03,.04-.06,.05c-.08,.03-.14,.08-.17,.16,0,.02-.01,.05-.05,.06-.04,0-.04-.03-.05-.05-.03-.09-.09-.14-.17-.17-.03,0-.05-.02-.05-.05,0-.03,.03-.04,.05-.04,.09-.03,.15-.09,.18-.18,0-.02,.02-.05,.05-.04,.02,0,.03,.02,.04,.04,.03,.1,.09,.16,.19,.19,.02,0,.04,.02,.04,.04Z"/><path class="cls-1" d="M.82,2.76s-.04-.02-.05-.05c-.03-.09-.08-.15-.18-.18-.02,0-.05-.02-.05-.04,0-.03,.02-.04,.04-.05,.09-.03,.15-.08,.18-.18,0-.02,.02-.05,.04-.05,.03,0,.04,.02,.05,.05,.03,.1,.09,.15,.19,.18,.02,0,.04,.02,.04,.04,0,.02-.02,.04-.04,.04-.1,.03-.16,.09-.19,.19,0,.02-.02,.04-.04,.04Z"/><path class="cls-1" d="M6.67,8.32s-.03,.04-.05,.05c-.09,.02-.14,.08-.17,.16,0,.02-.02,.05-.05,.05-.03,0-.04-.03-.05-.05-.03-.08-.08-.14-.17-.16-.03,0-.05-.02-.05-.05,0-.03,.02-.04,.05-.04,.09-.03,.14-.08,.17-.17,0-.02,.02-.05,.05-.04,.02,0,.04,.02,.04,.04,.02,.1,.09,.16,.19,.19,.03,0,.03,.02,.03,.04Z"/><path class="cls-1" d="M8.87,2.26s-.02,.04-.04,.05c-.07,.02-.11,.06-.13,.13,0,.02-.01,.04-.04,.04-.03,0-.04-.02-.05-.04-.02-.07-.06-.11-.13-.13-.02,0-.04-.02-.04-.04,0-.03,.02-.04,.04-.04,.07-.02,.12-.06,.14-.13,0-.02,.02-.04,.04-.04,.02,0,.03,.02,.04,.03,.02,.07,.07,.12,.14,.14,.02,0,.03,.02,.03,.04Z"/><path class="cls-1" d="M.54,6.33c0,.08-.06,.14-.14,.14-.08,0-.15-.07-.14-.15,0-.07,.07-.13,.15-.13,.08,0,.14,.06,.13,.14Z"/><path class="cls-1" d="M9.12,5.19c-.08,0-.14-.06-.14-.14,0-.08,.07-.14,.15-.14,.08,0,.14,.07,.13,.14,0,.08-.06,.14-.14,.13Z"/><path class="cls-1" d="M8.78,5.68s-.03,.04-.05,.05c-.08,.03-.14,.07-.17,.16,0,.02-.02,.05-.05,.06-.04,0-.05-.03-.06-.06-.02-.08-.08-.13-.16-.16-.03,0-.05-.02-.05-.05,0-.03,.03-.04,.05-.05,.09-.02,.14-.08,.16-.16,0-.03,.02-.05,.05-.05,.03,0,.04,.02,.05,.05,.03,.09,.08,.15,.17,.17,.03,0,.05,.02,.05,.05Zm-.26,.23s.02-.02,.02-.03c.03-.09,.09-.14,.18-.18,.05-.02,.01-.04-.01-.05-.09-.03-.14-.09-.17-.17,0-.01-.01-.03-.03-.03-.02,0-.02,.01-.03,.03-.03,.08-.08,.14-.16,.17-.02,0-.04,.01-.04,.03,0,.03,.02,.03,.04,.04,.08,.03,.13,.07,.15,.15,0,.02,.01,.03,.04,.04Z"/><path class="cls-1" d="M4.2,8.8c-.07,0-.12-.06-.12-.13,0-.07,.06-.12,.13-.12,.08,0,.13,.05,.12,.13,0,.07-.06,.13-.13,.13Z"/><path class="cls-1" d="M8.95,1.34c0,.07-.06,.12-.12,.12-.07,0-.13-.06-.12-.13,0-.07,.06-.12,.13-.12,.07,0,.12,.06,.12,.12Z"/><path class="cls-1" d="M8.3,1.33c0,.07-.05,.12-.12,.13-.07,0-.13-.05-.13-.12,0-.07,.06-.12,.12-.12,.07,0,.12,.05,.12,.12Z"/><path class="cls-1" d="M8.5,1.46c-.06,0-.12-.06-.12-.12,0-.07,.06-.13,.13-.12,.07,0,.12,.06,.12,.13,0,.06-.06,.12-.13,.12Z"/><path class="cls-1" d="M1.54,7.2c0,.07-.06,.12-.12,.12-.07,0-.12-.06-.12-.13,0-.07,.05-.12,.13-.12,.07,0,.12,.05,.12,.12Z"/><path class="cls-1" d="M1.22,7.2c0,.07-.06,.12-.12,.12-.07,0-.13-.05-.12-.13,0-.07,.05-.12,.12-.12,.07,0,.12,.05,.12,.12Z"/><path class="cls-1" d="M1.74,7.33c-.06,0-.12-.06-.12-.13,0-.07,.06-.12,.13-.12,.07,0,.12,.06,.11,.13,0,.07-.06,.12-.13,.12Z"/><path class="cls-1" d="M8.52,5.9s-.03-.02-.04-.04c-.02-.08-.08-.13-.15-.15-.02,0-.04-.01-.04-.04,0-.02,.02-.03,.04-.03,.08-.03,.14-.09,.16-.17,0-.01,0-.03,.03-.03,.01,0,.02,.02,.03,.03,.03,.08,.09,.14,.17,.17,.02,0,.06,.03,.01,.05-.09,.03-.15,.09-.18,.18,0,.01-.02,.02-.02,.03Z"/></g></g></g></svg>